<svg width="72" height="72" viewBox="0 0 72 72" fill="none" xmlns="http://www.w3.org/2000/svg">
<path opacity="0.4" fill-rule="evenodd" clip-rule="evenodd" d="M40.2072 9C28.4052 9 18.2142 16.782 14.6052 27.477L12.7062 26.895C11.9052 26.649 11.0382 26.871 10.4502 27.459C9.86217 28.056 9.64917 28.926 9.90117 29.721L12.2802 37.248C12.5052 37.953 13.0602 38.505 13.7682 38.721C13.9842 38.79 14.2062 38.82 14.4252 38.82C14.9262 38.82 15.4212 38.655 15.8232 38.334L22.0032 33.438C22.6572 32.919 22.9722 32.076 22.8162 31.257C22.6602 30.438 22.0632 29.769 21.2652 29.523L18.9102 28.8C21.9462 19.938 30.4062 13.5 40.2072 13.5C52.6152 13.5 62.7072 23.592 62.7072 36C62.7072 48.408 52.6152 58.5 40.2072 58.5C32.8092 58.5 25.8882 54.861 21.6822 48.765C20.9772 47.742 19.5792 47.481 18.5532 48.189C17.5302 48.894 17.2722 50.298 17.9802 51.318C23.0202 58.635 31.3302 63 40.2072 63C55.0962 63 67.2072 50.889 67.2072 36C67.2072 21.111 55.0962 9 40.2072 9Z" fill="white"/>
<path fill-rule="evenodd" clip-rule="evenodd" d="M38.6209 46.9328V48.1928C38.6209 49.4348 39.6289 50.4428 40.8709 50.4428C42.1129 50.4428 43.1209 49.4348 43.1209 48.1928V46.9328H43.2799C46.8439 46.9328 49.7449 44.0259 49.7449 40.4529C49.7449 36.8948 46.8439 33.9998 43.2799 33.9998H38.4619C37.3789 33.9998 36.4999 33.1149 36.4999 32.0198C36.4999 30.9459 37.3789 30.0728 38.4619 30.0728H46.2889C47.5309 30.0728 48.5389 29.065 48.5389 27.823C48.5389 26.581 47.5309 25.573 46.2889 25.573H43.1209V24.25C43.1209 23.008 42.1129 22 40.8709 22C39.6289 22 38.6209 23.008 38.6209 24.25V25.573H38.4619C34.8979 25.573 32 28.465 32 32.0198C32 35.5958 34.8979 38.4998 38.4619 38.4998H43.2799C44.3629 38.4998 45.2449 39.3759 45.2449 40.4529C45.2449 41.5448 44.3629 42.4328 43.2799 42.4328H35.4529C34.211 42.4328 33.203 43.4408 33.203 44.6828C33.203 45.9248 34.211 46.9328 35.4529 46.9328H38.6209Z" fill="white"/>
</svg>
