<svg xmlns="http://www.w3.org/2000/svg" width="72" height="72" viewBox="0 0 72 72" fill="none">
<path d="M40.8183 12.8927V28.7597L31.1793 45.0408H16.2484C14.5534 45.0408 13.0234 44.1018 12.2524 42.5928C11.4844 41.0838 11.6224 39.2928 12.6214 37.9218L32.7063 10.2557C33.8703 8.6537 35.8353 8.0117 37.7193 8.6267C39.6033 9.2357 40.8183 10.9097 40.8183 12.8927Z" fill="white"/>
<path opacity="0.4" d="M31.1271 60.8975V45.0305L40.7661 28.7495H55.6971C57.3921 28.7495 58.9221 29.6885 59.6931 31.1975C60.4611 32.7065 60.3231 34.4975 59.3241 35.8685L39.2391 63.5345C38.0751 65.1365 36.1101 65.7785 34.2261 65.1635C32.3421 64.5545 31.1271 62.8805 31.1271 60.8975Z" fill="white"/>
</svg>