<svg width="73" height="72" viewBox="0 0 73 72" fill="none" xmlns="http://www.w3.org/2000/svg">
<path fill-rule="evenodd" clip-rule="evenodd" d="M58.5685 51.2588C58.4605 51.3398 58.4065 51.3848 58.3495 51.4238C57.7255 51.8228 57.1195 52.2698 56.4745 52.6058C54.2005 53.8028 51.8095 54.3578 49.3765 54.6848C47.9035 54.8828 46.4245 54.9458 44.9425 54.9338C43.4935 54.9248 42.0445 54.8348 40.6105 54.5828C39.3895 54.3638 38.1715 54.0848 36.9655 53.7518C35.5555 53.3618 34.1905 52.7738 32.9155 51.8798C32.6635 51.7028 32.4115 51.5168 32.1235 51.3068C32.1235 51.4598 32.1445 56.0948 32.1115 58.3058C32.0995 59.3318 32.4265 60.0908 33.0025 60.7268C33.6715 61.4648 34.4515 61.9598 35.2645 62.3678C36.7105 63.0938 38.2135 63.5318 39.7465 63.8438C41.1985 64.1378 42.6595 64.3028 44.1265 64.3568C46.6555 64.4498 49.1695 64.2758 51.6625 63.6878C53.0965 63.3488 54.5035 62.8928 55.8415 62.1398C56.6065 61.7108 57.3325 61.2008 57.9235 60.4208C58.3525 59.8538 58.5805 59.1938 58.5745 58.3778C58.5595 56.1248 58.5685 51.4208 58.5685 51.2588Z" fill="white"/>
<path fill-rule="evenodd" clip-rule="evenodd" d="M32.8108 47.5217C33.5038 48.3917 34.3528 48.9317 35.2378 49.3877C36.5368 50.0567 37.8868 50.4737 39.2608 50.7887C40.6048 51.0977 41.9578 51.2867 43.3168 51.3737C45.9448 51.5447 48.5608 51.4067 51.1618 50.8517C52.7428 50.5157 54.2938 50.0387 55.7728 49.2197C56.5648 48.7847 57.3178 48.2627 57.9268 47.4617C58.3528 46.9007 58.5808 46.2497 58.5748 45.4427C58.5568 43.1717 58.5598 38.4527 58.5538 38.3387C58.2568 38.5517 57.9868 38.7557 57.7138 38.9417C55.5688 40.3787 53.2468 41.0387 50.8798 41.4647C49.7758 41.6627 48.6628 41.7797 47.5498 41.8727C45.3988 42.0527 43.2478 41.9687 41.1028 41.6807C39.5518 41.4707 38.0158 41.1377 36.5038 40.6307C35.3068 40.2287 34.1368 39.7307 33.0388 38.9837C32.7448 38.7827 32.4538 38.5637 32.1208 38.3267C32.1208 38.4767 32.1358 43.1627 32.1148 45.4007C32.1088 46.2587 32.3488 46.9427 32.8108 47.5217Z" fill="white"/>
<path fill-rule="evenodd" clip-rule="evenodd" d="M34.861 29.261C34.09 29.69 33.355 30.2031 32.764 30.9921C32.272 31.6491 31.984 32.3961 32.191 33.3351C32.323 33.9291 32.62 34.3881 32.974 34.7871C33.736 35.6481 34.639 36.1821 35.575 36.6261C37.267 37.4301 39.025 37.8681 40.807 38.1531C42.31 38.3931 43.822 38.5161 45.04 38.4951C47.884 38.4981 50.404 38.2131 52.888 37.4751C54.127 37.1061 55.336 36.6231 56.467 35.8641C57.088 35.4471 57.67 34.9581 58.12 34.2471C58.714 33.3051 58.723 32.2071 58.117 31.2771C57.91 30.9591 57.67 30.6651 57.412 30.4161C56.452 29.483 55.339 28.94 54.199 28.493C52.171 27.698 50.083 27.305 47.971 27.128C45.091 26.885 42.223 27.008 39.373 27.638C37.825 27.977 36.307 28.454 34.861 29.261Z" fill="white"/>
<g opacity="0.4">
<path fill-rule="evenodd" clip-rule="evenodd" d="M23.7581 35.0695C22.1981 34.8595 20.6681 34.5295 19.1681 34.0195C17.9681 33.6295 16.7981 33.1195 15.6881 32.3695C15.3881 32.1895 15.1181 31.9495 14.7881 31.7095V38.7895C14.7581 39.6595 14.9981 40.3495 15.4781 40.9195C16.1681 41.7895 17.0081 42.3295 17.9081 42.7795C19.1981 43.4395 20.5481 43.8595 21.9281 44.1895C23.2781 44.4895 24.6281 44.6695 25.9781 44.7595C26.8181 44.8195 27.6581 44.8495 28.4981 44.8195C28.5281 42.7195 28.5281 39.8095 28.5281 39.0595L28.4981 35.3395C26.9381 35.3995 25.3481 35.2795 23.7581 35.0695Z" fill="white"/>
<path fill-rule="evenodd" clip-rule="evenodd" d="M23.2778 47.9692C22.0478 47.7592 20.8178 47.4892 19.6178 47.1592C18.2078 46.7692 16.8578 46.1692 15.5678 45.2692C15.3278 45.0892 15.0578 44.9092 14.7878 44.6992C14.7878 44.8492 14.7878 49.4992 14.7578 51.6892C14.7578 52.7392 15.0878 53.4892 15.6578 54.1192C16.3178 54.8692 17.0978 55.3492 17.9078 55.7692C19.3778 56.4892 20.8778 56.9392 22.4078 57.2392C23.8478 57.5392 25.3178 57.6892 26.7878 57.7492C27.3578 57.7792 27.9278 57.7792 28.4978 57.7792C28.5278 55.8292 28.5278 51.9892 28.5278 51.0592V48.2992C28.2278 48.3292 27.8978 48.3292 27.5978 48.3292C26.1578 48.3292 24.7178 48.2392 23.2778 47.9692Z" fill="white"/>
<path fill-rule="evenodd" clip-rule="evenodd" d="M38.128 24.2392C39.148 24.0292 40.168 23.8492 41.218 23.7292V18.9292C40.918 19.1692 40.648 19.3492 40.378 19.5592C38.218 20.9692 35.908 21.6292 33.538 22.0792C32.428 22.2592 31.318 22.3792 30.2081 22.4692C28.0481 22.6492 25.9181 22.5892 23.7581 22.2892C22.1981 22.0792 20.6681 21.7492 19.1681 21.2392C17.9681 20.8492 16.7981 20.3392 15.6881 19.5892C15.3881 19.3792 15.1181 19.1692 14.7881 18.9292V26.0092C14.7581 26.8492 14.9981 27.5392 15.4781 28.1392C16.1681 29.0092 17.0081 29.5492 17.9081 29.9992C19.1981 30.6592 20.5481 31.0792 21.9281 31.4092C23.2781 31.7092 24.6281 31.8892 25.9781 31.9792C26.8481 32.0392 27.7181 32.0692 28.5581 32.0392C28.5881 31.0492 28.8881 29.8792 29.7581 28.7392C30.748 27.4492 31.888 26.6992 32.788 26.1892C34.318 25.3492 36.028 24.7192 38.128 24.2392Z" fill="white"/>
<path fill-rule="evenodd" clip-rule="evenodd" d="M15.6335 15.3925C16.3955 16.2535 17.2985 16.7875 18.2345 17.2315C19.9265 18.0355 21.6845 18.4735 23.4635 18.7585C24.9695 19.0015 26.4815 19.1215 27.6995 19.1005C30.5435 19.1035 33.0634 18.8185 35.5474 18.0805C36.7864 17.7115 37.9924 17.2285 39.1264 16.4695C39.7474 16.0525 40.3294 15.5635 40.7764 14.8525C41.3734 13.9105 41.3824 12.8125 40.7764 11.8825C40.5694 11.5645 40.3294 11.2705 40.0714 11.0215C39.1084 10.0885 37.9984 9.54547 36.8584 9.09847C34.8274 8.30347 32.7424 7.91047 30.6305 7.73347C27.7505 7.49047 24.8825 7.61347 22.0325 8.24347C20.4845 8.58247 18.9665 9.05947 17.5205 9.86647C16.7495 10.2985 16.0145 10.8085 15.4235 11.5975C14.9315 12.2545 14.6435 13.0015 14.8505 13.9405C14.9825 14.5345 15.2795 14.9935 15.6335 15.3925Z" fill="white"/>
</g>
</svg>
