<svg width="73" height="72" viewBox="0 0 73 72" fill="none" xmlns="http://www.w3.org/2000/svg">
<path fill-rule="evenodd" clip-rule="evenodd" d="M62.2708 20.88C62.2708 14.31 56.9548 9 50.3968 9C43.8388 9 38.5198 14.31 38.5198 20.88C38.5198 27.42 43.8388 32.76 50.3968 32.76C56.9548 32.76 62.2708 27.42 62.2708 20.88Z" fill="white"/>
<path fill-rule="evenodd" clip-rule="evenodd" d="M22.2687 39.2407C15.7107 39.2407 10.3947 44.5807 10.3947 51.1207C10.3947 57.6907 15.7107 63.0007 22.2687 63.0007C28.8267 63.0007 34.1458 57.6907 34.1458 51.1207C34.1458 44.5807 28.8267 39.2407 22.2687 39.2407Z" fill="white"/>
<g opacity="0.4">
<path fill-rule="evenodd" clip-rule="evenodd" d="M13.6072 29.397C14.2792 29.397 14.9152 29.097 15.3412 28.584L19.5862 23.457C20.1412 22.785 20.2612 21.849 19.8892 21.063C19.5172 20.274 18.7252 19.77 17.8522 19.77H15.8572V19.62C15.8572 15.006 19.6102 11.25 24.2212 11.25C25.4632 11.25 26.4712 10.242 26.4712 9C26.4712 7.758 25.4632 6.75 24.2212 6.75C17.1292 6.75 11.3572 12.525 11.3572 19.62V19.77H9.35924C8.48624 19.77 7.69424 20.274 7.32224 21.063C6.95024 21.852 7.07024 22.785 7.62824 23.457L11.8762 28.584C12.3022 29.097 12.9352 29.397 13.6072 29.397Z" fill="white"/>
<path fill-rule="evenodd" clip-rule="evenodd" d="M65.0407 48.5455L60.7927 43.4035C59.9377 42.3655 58.1797 42.3655 57.3247 43.4035L53.0797 48.5455C52.5217 49.2175 52.4077 50.1475 52.7767 50.9365C53.1487 51.7255 53.9437 52.2295 54.8137 52.2295H56.8087V52.3795C56.8087 56.9935 53.0557 60.7495 48.4447 60.7495C47.2027 60.7495 46.1947 61.7575 46.1947 62.9995C46.1947 64.2415 47.2027 65.2495 48.4447 65.2495C55.5367 65.2495 61.3087 59.4775 61.3087 52.3795V52.2295H63.3067C64.1767 52.2295 64.9717 51.7255 65.3437 50.9365C65.7157 50.1475 65.5957 49.2175 65.0407 48.5455Z" fill="white"/>
</g>
</svg>
