<svg width="72" height="72" viewBox="0 0 72 72" fill="none" xmlns="http://www.w3.org/2000/svg">
<g opacity="0.4">
<path fill-rule="evenodd" clip-rule="evenodd" d="M13.8355 38.2722C12.5934 38.2722 11.5854 37.2642 11.5854 36.0222V11.6953C11.5854 10.4533 12.5934 9.44531 13.8355 9.44531C15.0775 9.44531 16.0855 10.4533 16.0855 11.6953V36.0222C16.0855 37.2642 15.0775 38.2722 13.8355 38.2722Z" fill="white"/>
<path fill-rule="evenodd" clip-rule="evenodd" d="M62.439 62.5419H21.7711C16.1551 62.5419 11.5891 57.9669 11.5891 52.3449V45.6519C11.5891 44.4099 12.5971 43.4019 13.8391 43.4019C15.0811 43.4019 16.0891 44.4099 16.0891 45.6519V52.3449C16.0891 55.4829 18.6361 58.0419 21.7711 58.0419H62.439C63.681 58.0419 64.689 59.0499 64.689 60.2919C64.689 61.5339 63.681 62.5419 62.439 62.5419Z" fill="white"/>
</g>
<path fill-rule="evenodd" clip-rule="evenodd" d="M58.158 16.582C54.249 16.582 51.069 19.756 51.069 23.659C51.069 24.883 51.408 26.02 51.954 27.028L46.287 33.7929C45.423 33.4149 44.472 33.2019 43.47 33.2019C42.453 33.2019 41.49 33.4239 40.614 33.8079L34.935 27.106C35.508 26.08 35.862 24.916 35.862 23.659C35.862 19.756 32.679 16.582 28.767 16.582C24.855 16.582 21.675 19.756 21.675 23.659C21.675 24.934 22.038 26.116 22.629 27.154L16.65 34.3239C15.789 33.9519 14.841 33.7389 13.845 33.7389C9.933 33.7389 6.75 36.9159 6.75 40.8219C6.75 44.7399 9.933 47.9319 13.845 47.9319C17.751 47.9319 20.934 44.7399 20.934 40.8219C20.934 39.5559 20.571 38.3829 19.986 37.3539L25.962 30.1839C26.823 30.5589 27.771 30.7689 28.767 30.7689C29.784 30.7689 30.744 30.5469 31.62 30.1599L37.296 36.8559C36.726 37.8759 36.372 39.0309 36.372 40.2789V40.3479C36.39 44.2299 39.573 47.3889 43.47 47.3889C47.376 47.3889 50.559 44.1999 50.559 40.2789C50.559 39.0189 50.199 37.8489 49.617 36.8229L55.236 30.1179C56.13 30.5259 57.114 30.7689 58.158 30.7689C62.07 30.7689 65.25 27.58 65.25 23.659C65.25 19.756 62.07 16.582 58.158 16.582Z" fill="white"/>
</svg>
