<svg width="72" height="72" viewBox="0 0 72 72" fill="none" xmlns="http://www.w3.org/2000/svg">
<path opacity="0.4" fill-rule="evenodd" clip-rule="evenodd" d="M38.322 50.2686C37.8411 41.1687 45.5388 33.3159 54.5373 33.3159C58.5735 33.3159 62.2617 34.8006 65.1033 37.2441C65.7348 37.7871 66.8103 37.3656 66.8103 36.5328V28.4859C66.8103 27.9889 66.4074 27.5859 65.9103 27.5859H10.7613C10.2643 27.5859 9.86133 27.9889 9.86133 28.4859V46.1289C9.86133 55.9689 15.7653 61.8459 25.6593 61.8459H41.5221C42.3561 61.8459 42.7779 60.7668 42.2352 60.1338C39.8766 57.3816 38.5149 53.9142 38.322 50.2686Z" fill="white"/>
<path fill-rule="evenodd" clip-rule="evenodd" d="M62.7417 13.6104C59.9937 10.8534 55.9467 9.39844 51.0387 9.39844H25.6616C16.7683 9.39844 11.1618 14.1138 10.109 22.1015C10.0402 22.6235 10.4562 23.0754 10.9827 23.0754H65.6985C66.2244 23.0754 66.6402 22.6259 66.5733 22.1043C66.1317 18.6573 64.8612 15.7356 62.7417 13.6104Z" fill="white"/>
<path d="M23.9433 49.3569H30.5763C31.8183 49.3569 32.8263 48.3489 32.8263 47.1069C32.8263 45.8649 31.8183 44.8569 30.5763 44.8569H23.9433C22.7013 44.8569 21.6933 45.8649 21.6933 47.1069C21.6933 48.3489 22.7013 49.3569 23.9433 49.3569Z" fill="white"/>
<path d="M29.0883 34.5068H24.1293C22.8873 34.5068 21.8793 35.5148 21.8793 36.7568C21.8793 37.9988 22.8873 39.0068 24.1293 39.0068H29.0883C30.3303 39.0068 31.3383 37.9988 31.3383 36.7568C31.3383 35.5148 30.3303 34.5068 29.0883 34.5068Z" fill="white"/>
<path fill-rule="evenodd" clip-rule="evenodd" d="M54.5385 56.0471C50.9565 56.0471 48.0405 53.1251 48.0405 49.5371C48.0405 45.9641 50.9565 43.0571 54.5385 43.0571C58.1205 43.0571 61.0365 45.9641 61.0365 49.5371C61.0365 53.1251 58.1205 56.0471 54.5385 56.0471ZM66.4815 58.7381L63.5595 55.8311C64.8045 54.0461 65.5365 51.8741 65.5365 49.5371C65.5365 43.4831 60.6015 38.5571 54.5385 38.5571C48.4755 38.5571 43.5405 43.4831 43.5405 49.5371C43.5405 55.6091 48.4755 60.5471 54.5385 60.5471C56.6415 60.5471 58.6095 59.9531 60.2835 58.9211L63.3135 61.9331C63.7485 62.3681 64.3245 62.5871 64.8975 62.5871C65.4765 62.5871 66.0555 62.3621 66.4935 61.9211C67.3695 61.0421 67.3635 59.6141 66.4815 58.7381Z" fill="white"/>
<path d="M37.3302 34.5234H43.9632C45.2052 34.5234 46.2132 35.5314 46.2132 36.7734C46.2132 38.0154 45.2052 39.0234 43.9632 39.0234H37.3302C36.0882 39.0234 35.0802 38.0154 35.0802 36.7734C35.0802 35.5314 36.0882 34.5234 37.3302 34.5234Z" fill="white"/>
</svg>
