<svg width="72" height="72" viewBox="0 0 72 72" fill="none" xmlns="http://www.w3.org/2000/svg">
<path opacity="0.4" fill-rule="evenodd" clip-rule="evenodd" d="M60.4878 11.4905C55.1478 6.18048 46.4778 6.18048 41.1378 11.5205C37.1478 15.4805 36.0078 21.6005 38.2878 26.7605C38.2878 27.0605 38.1978 27.5105 38.1378 27.9905C37.8078 30.4506 37.6578 32.2806 38.7078 33.3006C39.7278 34.3506 41.5578 34.2006 44.0178 33.8706C44.5278 33.7806 44.9778 33.7206 45.2478 33.7206C47.0178 34.5006 48.9078 34.8906 50.7978 34.8906C54.3678 34.8906 57.8778 33.5106 60.4878 30.8706C65.8278 25.5305 65.8278 16.8605 60.4878 11.4905Z" fill="white"/>
<path fill-rule="evenodd" clip-rule="evenodd" d="M51.3249 46.9034C50.7039 46.3124 50.0319 45.6704 49.3179 44.9564C45.9369 41.5904 43.0329 42.7304 40.6959 43.6514C37.9209 44.7464 35.5209 45.6824 30.9279 41.0894C26.3288 36.4904 27.2678 34.0904 28.3538 31.3124C29.2688 28.9724 30.4059 26.0654 27.0278 22.6994C26.3168 21.9824 25.6718 21.3074 25.0808 20.6834C22.6328 18.1004 20.8628 16.2374 18.3218 16.2074C16.0748 16.0754 13.8668 17.5364 10.5068 20.8994C10.4648 20.9384 10.3118 21.0914 10.2758 21.1364C9.52276 21.8714 7.52776 23.8244 7.50676 27.6314C7.47376 33.4964 12.1808 41.1944 21.4988 50.5004C30.7749 59.7854 38.4489 64.4894 44.3109 64.4894H44.3829C48.1989 64.4654 50.1489 62.4614 50.8839 61.7054L49.8099 60.6584L51.1149 61.4774C54.4689 58.1354 55.8249 55.8764 55.8009 53.6924C55.7709 51.1424 53.9079 49.3634 51.3249 46.9034Z" fill="white"/>
<path d="M53.0781 23.4291H54.9381C56.1981 23.4291 57.1881 22.4091 57.1881 21.1791C57.1881 19.9491 56.1981 18.9291 54.9381 18.9291H53.0781V17.0391C53.0781 15.8091 52.0581 14.7891 50.8281 14.7891C49.5681 14.7891 48.5781 15.8091 48.5781 17.0391V18.9291H46.6881C45.4281 18.9291 44.4381 19.9491 44.4381 21.1791C44.4381 22.4091 45.4281 23.4291 46.6881 23.4291H48.5781V25.3491C48.5781 26.5791 49.5681 27.5991 50.8281 27.5991C52.0581 27.5991 53.0781 26.5791 53.0781 25.3491V23.4291Z" fill="white"/>
</svg>
