<svg width="72" height="72" viewBox="0 0 72 72" fill="none" xmlns="http://www.w3.org/2000/svg">
<path opacity="0.4" fill-rule="evenodd" clip-rule="evenodd" d="M54.1059 31.5327C57.2427 31.5327 60.2301 32.322 62.8524 33.7026C63.4824 34.0344 64.2759 33.5964 64.2759 32.8842V28.5328C64.2759 28.0357 63.873 27.6328 63.3759 27.6328H8.17588C7.67884 27.6328 7.27588 28.0357 7.27588 28.5328V41.7327C7.27588 50.1327 12.6759 55.7427 20.6859 55.7427H34.8384C35.4405 55.7427 35.8728 55.1622 35.7384 54.5751C35.4282 53.2197 35.2659 51.8142 35.2659 50.3727C35.2659 39.9927 43.7259 31.5327 54.1059 31.5327Z" fill="white"/>
<path fill-rule="evenodd" clip-rule="evenodd" d="M64.2797 22.0139C64.2797 13.6349 58.8977 8.00391 50.8877 8.00391H20.6746C12.6646 8.00391 7.28564 13.6349 7.28564 22.0139V22.2539C7.28564 22.7509 7.68858 23.1539 8.18565 23.1539H63.3797C63.8768 23.1539 64.2797 22.7509 64.2797 22.2539V22.0139Z" fill="white"/>
<path fill-rule="evenodd" clip-rule="evenodd" d="M54.1129 59.498C49.0909 59.498 45.0049 55.409 45.0049 50.381C45.0049 45.368 49.0909 41.291 54.1129 41.291C59.1379 41.291 63.2239 45.368 63.2239 50.381C63.2239 55.409 59.1379 59.498 54.1129 59.498ZM54.1129 36.791C46.6099 36.791 40.5049 42.887 40.5049 50.381C40.5049 57.89 46.6099 63.998 54.1129 63.998C61.6189 63.998 67.7239 57.89 67.7239 50.381C67.7239 42.887 61.6189 36.791 54.1129 36.791Z" fill="white"/>
<path fill-rule="evenodd" clip-rule="evenodd" d="M58.7942 51.4175L56.3042 49.9385V46.6025C56.3042 45.3575 55.2962 44.3525 54.0542 44.3525C52.8122 44.3525 51.8042 45.3575 51.8042 46.6025V51.2195C51.8042 52.0115 52.2242 52.7465 52.9052 53.1515L56.4962 55.2845C56.8562 55.4975 57.2522 55.6025 57.6422 55.6025C58.4102 55.6025 59.1602 55.2095 59.5802 54.4985C60.2162 53.4305 59.8622 52.0505 58.7942 51.4175Z" fill="white"/>
</svg>
