<svg width="44" height="44" viewBox="0 0 44 44" fill="none" xmlns="http://www.w3.org/2000/svg">
<path opacity="0.4" fill-rule="evenodd" clip-rule="evenodd" d="M10.3329 38.8203C10.3188 38.8208 10.3047 38.821 10.2905 38.821C8.64967 38.821 7.106 38.1922 5.94733 37.0519C4.7685 35.8639 4.125 34.3165 4.125 32.6794V19.3877C4.125 18.1447 4.7355 17.0337 5.76033 16.414C6.71 15.8365 7.86867 15.8035 8.85867 16.3168L10.054 16.9402C10.3895 17.1125 10.7873 17.1217 11.165 16.964L13.4182 15.9502C13.5096 15.913 13.6008 15.8847 13.6917 15.8644V9.68868C13.6917 8.45301 14.2985 7.34201 15.3142 6.71868C16.262 6.13751 17.417 6.08984 18.4089 6.59218L19.6189 7.22284C19.9654 7.40984 20.3449 7.41901 20.706 7.25768L24.0904 5.75618C25.8284 4.98984 27.7387 4.99168 29.473 5.75434L32.861 7.25768C33.2222 7.41901 33.6035 7.40984 33.928 7.23384L35.1472 6.59951C36.1519 6.08984 37.305 6.13568 38.2547 6.71868C39.2704 7.34201 39.8754 8.45301 39.8754 9.68868L39.8607 30.7188C39.8607 35.7165 37.0575 38.8203 32.5439 38.8203H10.3329ZM13.6917 18.843V32.6786C13.6917 34.5486 12.1663 36.0703 10.2908 36.0703C10.2788 36.0703 10.2667 36.0705 10.2547 36.0708C9.35332 36.0619 8.50943 35.7146 7.887 35.1012C7.23433 34.4449 6.875 33.585 6.875 32.6794V19.3877C6.875 18.9825 7.1115 18.8102 7.183 18.7662C7.37174 18.6476 7.52523 18.7246 7.583 18.7535L7.58633 18.7552L8.79083 19.3822C9.85417 19.9322 11.1118 19.9725 12.2632 19.4867L13.6917 18.843Z" fill="white"/>
<path fill-rule="evenodd" clip-rule="evenodd" d="M31.4658 27.8926H22.5283C21.7693 27.8926 21.1533 27.2766 21.1533 26.5176C21.1533 25.7586 21.7693 25.1426 22.5283 25.1426H31.4658C32.2248 25.1426 32.8408 25.7586 32.8408 26.5176C32.8408 27.2766 32.2248 27.8926 31.4658 27.8926Z" fill="white"/>
<path fill-rule="evenodd" clip-rule="evenodd" d="M25.9392 22.5217C25.5872 22.5217 25.237 22.3878 24.9675 22.1202L22.2688 19.427C21.7317 18.8898 21.7317 18.019 22.267 17.48C22.8042 16.9428 23.675 16.9447 24.2122 17.4782L25.9392 19.2015L30.4895 14.6548C31.0267 14.1177 31.8975 14.1177 32.4328 14.6548C32.97 15.192 32.97 16.0628 32.4328 16.6L26.9108 22.1183C26.6432 22.3878 26.2912 22.5217 25.9392 22.5217Z" fill="white"/>
</svg>
