<svg width="72" height="72" viewBox="0 0 72 72" fill="none" xmlns="http://www.w3.org/2000/svg">
<path opacity="0.4" fill-rule="evenodd" clip-rule="evenodd" d="M27.0016 40.4661H22.2436C21.0016 40.4661 19.9936 39.4581 19.9936 38.2161C19.9936 36.9741 21.0016 35.9661 22.2436 35.9661H27.0016C28.2437 35.9661 29.2516 36.9741 29.2516 38.2161C29.2516 39.4581 28.2437 40.4661 27.0016 40.4661ZM22.2466 23.3782H33.9016C35.1436 23.3782 36.1516 24.3862 36.1516 25.6282C36.1516 26.8702 35.1436 27.8782 33.9016 27.8782H22.2466C21.0046 27.8782 19.9966 26.8702 19.9966 25.6282C19.9966 24.3862 21.0046 23.3782 22.2466 23.3782ZM34.1326 56.6961L33.5746 56.1351C32.1586 54.7311 31.3636 52.8351 31.3546 50.8161C31.3426 48.7911 32.1226 46.8891 33.5476 45.4521C33.5806 45.4131 33.6166 45.3801 33.6526 45.3441L34.1326 44.8671V44.0661C34.1326 39.8991 37.5256 36.5001 41.6956 36.4941H42.5116L43.0576 35.9481C44.4646 34.5231 46.3636 33.7251 48.3856 33.7161H48.4216C50.4346 33.7161 52.3276 34.4961 53.7556 35.9151C53.7916 35.9481 53.8246 35.9841 53.8576 36.0201L54.3346 36.4941H55.1416C55.8466 36.4941 56.5156 36.6201 57.1636 36.8031V21.4792C57.1636 14.2042 51.2446 8.28516 43.9726 8.28516H23.8306C16.5586 8.28516 10.6396 14.2042 10.6396 21.4792V49.1841C10.6396 56.4561 16.5586 62.3721 23.8306 62.3721H35.9536C34.8346 61.0521 34.1326 59.3661 34.1326 57.5061V56.6961Z" fill="white"/>
<path fill-rule="evenodd" clip-rule="evenodd" d="M53.681 49.6589L48.503 54.8399C48.137 55.2029 47.642 55.4099 47.123 55.4099C46.607 55.4069 46.109 55.2029 45.743 54.8369L43.232 52.3169C42.47 51.5549 42.473 50.3189 43.235 49.5599C43.997 48.7949 45.233 48.8039 45.992 49.5629L47.126 50.6999L50.924 46.8989C51.683 46.1369 52.919 46.1369 53.681 46.8989C54.443 47.6609 54.443 48.8969 53.681 49.6589ZM60.098 47.7419L59.21 46.8539C58.973 46.6139 58.835 46.2839 58.835 45.9419V44.6729C58.835 42.3029 56.909 40.3739 54.539 40.3739H53.264C52.922 40.3739 52.598 40.2419 52.355 39.9989L51.449 39.0959C50.633 38.2859 49.616 37.7669 48.401 37.8479C47.255 37.8539 46.178 38.3069 45.377 39.1169L44.495 39.9989C44.252 40.2419 43.928 40.3739 43.58 40.3739H42.305C39.941 40.3799 38.015 42.3059 38.015 44.6699L38.012 45.9389C38.012 46.2779 37.874 46.6109 37.637 46.8509L36.818 47.6759C36.785 47.7029 36.755 47.7269 36.728 47.7569C35.921 48.5729 35.477 49.6529 35.483 50.8019C35.489 51.9479 35.939 53.0249 36.746 53.8229L37.634 54.7169C37.88 54.9629 38.015 55.2839 38.015 55.6229V56.9039C38.015 59.2709 39.941 61.1999 42.308 61.1999H43.577C43.916 61.1999 44.246 61.3379 44.486 61.5719L45.395 62.4779C46.205 63.2819 47.279 63.7229 48.419 63.7229H48.434C49.583 63.7199 50.66 63.2669 51.458 62.4629L52.355 61.5689C52.595 61.3259 52.919 61.1939 53.261 61.1939H54.545C56.909 61.1939 58.835 59.2709 58.838 56.9039V55.6259C58.838 55.2839 58.973 54.9599 59.207 54.7199L60.113 53.8169C61.781 52.1369 61.775 49.4129 60.098 47.7419Z" fill="white"/>
<path fill-rule="evenodd" clip-rule="evenodd" d="M27.0017 40.467H22.2437C21.0017 40.467 19.9937 39.459 19.9937 38.217C19.9937 36.975 21.0017 35.967 22.2437 35.967H27.0017C28.2437 35.967 29.2517 36.975 29.2517 38.217C29.2517 39.459 28.2437 40.467 27.0017 40.467ZM22.2467 23.3789H33.9016C35.1436 23.3789 36.1516 24.3869 36.1516 25.6289C36.1516 26.8709 35.1436 27.8789 33.9016 27.8789H22.2467C21.0047 27.8789 19.9967 26.8709 19.9967 25.6289C19.9967 24.3869 21.0047 23.3789 22.2467 23.3789Z" fill="white"/>
</svg>
