<svg xmlns="http://www.w3.org/2000/svg" width="148" height="111" viewBox="0 0 148 111" fill="none">
<path d="M147.436 0.563876V110.436H0.563889V0.563876H147.436ZM148 0H0V111H148V0Z" fill="white"/>
<path d="M72.2194 3.11719H3.25781V81.4072H72.2194V3.11719Z" fill="#181818"/>
<path d="M71.9225 3.41454V81.1093H3.55615V3.41454H71.9225ZM72.5229 2.81934H2.96094V81.7097H72.5229V2.81934Z" fill="white"/>
<path d="M72.5229 72.541H2.96094V107.919H72.5229V72.541Z" fill="white"/>
<path d="M54.6189 26.3405C54.6189 36.3754 46.4008 44.5046 36.2664 44.5046C26.1321 44.5046 17.9139 36.3754 17.9139 26.3405C17.9139 16.3056 26.1321 8.18164 36.2664 8.18164C46.4008 8.18164 54.6189 16.3161 54.6189 26.3458V26.3405Z" fill="white"/>
<path d="M58.4461 33.3525C58.4461 34.3027 57.6681 35.0702 56.7074 35.0702C55.7467 35.0702 54.9688 34.2975 54.9688 33.3525C54.9688 32.4075 55.7467 31.6348 56.7074 31.6348C57.6681 31.6348 58.4461 32.4023 58.4461 33.3525Z" fill="white"/>
<path d="M28.2006 29.0348C28.2006 28.1837 28.1849 27.5154 28.1327 26.8471H29.4484L29.532 28.1628H29.5633C29.9706 27.411 30.9104 26.6592 32.2627 26.6592C33.3904 26.6592 35.1448 27.3275 35.1448 30.0999V34.9241H33.6619V30.2669C33.6619 28.9669 33.1711 27.8652 31.7719 27.8652C30.8112 27.8652 30.0541 28.5492 29.7826 29.3689C29.7199 29.5517 29.6834 29.8179 29.6834 30.0529V34.9294H28.2006V29.0348Z" fill="#181818"/>
<path d="M42.7872 33.6916H42.7558C42.3173 34.4748 41.4088 35.1118 40.093 35.1118C38.1873 35.1118 36.6366 33.4932 36.6366 31.0237C36.6366 28.0007 38.6102 26.6641 40.328 26.6641C41.5915 26.6641 42.4373 27.2801 42.8394 28.0685H42.8707L42.9229 26.852H44.3379C44.2856 27.5203 44.27 28.2199 44.27 29.071V38.234H42.7872V33.6916ZM42.7872 30.1204C42.7872 29.9011 42.7715 29.6871 42.7193 29.5043C42.4843 28.6011 41.7064 27.8336 40.5943 27.8336C39.0592 27.8336 38.1351 29.118 38.1351 30.9349C38.1351 32.5534 38.913 33.9422 40.5473 33.9422C41.508 33.9422 42.3381 33.3575 42.6723 32.3394C42.7402 32.1357 42.7872 31.8538 42.7872 31.6345V30.1152V30.1204Z" fill="#181818"/>
<path d="M52.1289 32.9926C52.1289 33.6923 52.1602 34.3762 52.249 34.9297H50.9124L50.7818 33.9115H50.7296C50.291 34.5485 49.3982 35.1124 48.2339 35.1124C46.584 35.1124 45.7382 33.9585 45.7382 32.7942C45.7382 30.8416 47.4925 29.7712 50.6461 29.7921V29.625C50.6461 28.9568 50.4581 27.7402 48.7873 27.7559C48.0146 27.7559 47.221 27.97 46.6466 28.3563L46.3125 27.3695C46.986 26.9519 47.9833 26.6699 49.0066 26.6699C51.5232 26.6699 52.1289 28.3563 52.1289 29.9749V32.9979V32.9926ZM50.6774 30.805C49.0588 30.7737 47.221 31.0556 47.221 32.6272C47.221 33.5931 47.8632 34.0264 48.6046 34.0264C49.6854 34.0264 50.3746 33.3581 50.6148 32.6742C50.667 32.5227 50.6826 32.3557 50.6826 32.2095V30.805H50.6774Z" fill="#181818"/>
<path d="M145.04 2.87109H75.457V92.0783H145.04V2.87109Z" fill="#181818"/>
<path d="M87.1368 79.9916H86.5155L84.9387 76.2585H84.9074L84.5732 80.686H83.8318L84.2547 75.3135H85.2676L86.8288 79.1405L88.4212 75.3135H89.4028L89.8257 80.686H89.0843L88.7658 76.2167H88.7345L87.1264 79.9916H87.1368Z" fill="white"/>
<path d="M94.593 80.685L94.0135 79.0142H91.9145L91.3402 80.685H90.5623L92.4889 75.3125H93.4496L95.3762 80.685H94.5982H94.593ZM92.1391 78.3668H93.7837L92.9745 76.0017H92.9431L92.1338 78.3668H92.1391Z" fill="white"/>
<path d="M99.4347 79.5474H99.466V75.3184H100.207V80.6908H99.3563L97.0381 76.4305H97.0068V80.6908H96.2654V75.3184H97.1791L99.4399 79.5474H99.4347Z" fill="white"/>
<path d="M105.128 80.685L104.549 79.0142H102.45L101.875 80.685H101.097L103.024 75.3125H103.985L105.911 80.685H105.133H105.128ZM102.674 78.3668H104.319L103.51 76.0017H103.478L102.669 78.3668H102.674Z" fill="white"/>
<path d="M108.879 80.7534C106.686 80.6907 106.644 79.4063 106.644 78.6754V77.3231C106.644 76.5922 106.691 75.2451 108.999 75.2451C109.605 75.2451 110.169 75.3495 110.534 75.4122V76.0231C110.226 75.9708 109.62 75.8873 108.999 75.8873C107.412 75.8873 107.38 76.7122 107.38 77.3231V78.6754C107.38 79.2706 107.401 80.0642 108.874 80.1112C109.291 80.1112 109.876 80.0067 110.189 79.8397V78.6545H109.062V78.0123H110.853V80.2312C110.346 80.5236 109.688 80.7534 108.874 80.7534H108.879Z" fill="white"/>
<path d="M112.058 80.685V75.3125H115.353V75.9547H112.8V77.709H115.071V78.3512H112.8V80.0428H115.421V80.685H112.058Z" fill="white"/>
<path d="M119.703 79.9906H119.082L117.505 76.2575H117.474L117.14 80.685H116.398L116.821 75.3125H117.834L119.395 79.1395L120.988 75.3125H121.969L122.392 80.685H121.651L121.332 76.2157H121.301L119.693 79.9906H119.703Z" fill="white"/>
<path d="M123.633 80.685V75.3125H126.927V75.9547H124.374V77.709H126.645V78.3512H124.374V80.0428H126.995V80.685H123.633Z" fill="white"/>
<path d="M131.317 79.5474H131.349V75.3184H132.09V80.6908H131.239L128.921 76.4305H128.89V80.6908H128.148V75.3184H129.062L131.323 79.5474H131.317Z" fill="white"/>
<path d="M134.638 75.9547H133.004V75.3125H137.008V75.9547H135.379V80.685H134.638V75.9547Z" fill="white"/>
<path d="M95.5842 83.066C94.8271 83.066 94.3781 83.1861 94.3781 83.8283C94.3781 84.2199 94.6287 84.387 95.1509 84.6689L96.1429 85.1753C96.7799 85.4938 97.1036 85.8332 97.1036 86.6111C97.1036 87.6971 96.3569 87.9321 95.1039 87.9321C94.8324 87.9321 94.1066 87.8642 93.5427 87.7232V87.0497C94.0805 87.2168 94.8324 87.2899 95.1039 87.2899C95.887 87.2899 96.3674 87.1593 96.3674 86.6111C96.3674 86.1569 96.1794 85.9898 95.7983 85.8019L94.7488 85.2641C94.0231 84.8882 93.6471 84.5749 93.6471 83.8074C93.6471 82.6536 94.3259 82.4238 95.5947 82.4238C95.8453 82.4238 96.477 82.4604 96.9261 82.5909V83.254C96.5867 83.1235 95.8818 83.066 95.5947 83.066H95.5842Z" fill="white"/>
<path d="M99.9822 85.4317H99.9979L101.507 82.4922H102.368L100.342 86.1783V87.8647H99.6011V86.1626L97.5857 82.4922H98.4472L99.9822 85.4317Z" fill="white"/>
<path d="M104.869 83.066C104.112 83.066 103.663 83.1861 103.663 83.8283C103.663 84.2199 103.914 84.387 104.436 84.6689L105.428 85.1753C106.065 85.4938 106.389 85.8332 106.389 86.6111C106.389 87.6971 105.642 87.9321 104.389 87.9321C104.118 87.9321 103.392 87.8642 102.828 87.7232V87.0497C103.366 87.2168 104.118 87.2899 104.389 87.2899C105.172 87.2899 105.653 87.1593 105.653 86.6111C105.653 86.1569 105.465 85.9898 105.083 85.8019L104.034 85.2641C103.308 84.8882 102.932 84.5749 102.932 83.8074C102.932 82.6536 103.611 82.4238 104.88 82.4238C105.13 82.4238 105.762 82.4604 106.211 82.5909V83.254C105.872 83.1235 105.167 83.066 104.88 83.066H104.869Z" fill="white"/>
<path d="M108.653 83.1344H107.019V82.4922H111.024V83.1344H109.39V87.8647H108.648V83.1344H108.653Z" fill="white"/>
<path d="M111.949 87.8588V82.4863H115.244V83.1285H112.69V84.8828H114.962V85.525H112.69V87.2166H115.311V87.8588H111.949Z" fill="white"/>
<path d="M119.59 87.1644H118.969L117.392 83.4313H117.36L117.026 87.8588H116.285L116.708 82.4863H117.721L119.282 86.3134L120.874 82.4863H121.856L122.279 87.8588H121.537L121.219 83.3896H121.188L119.579 87.1644H119.59Z" fill="white"/>
<path d="M125.315 83.066C124.558 83.066 124.109 83.1861 124.109 83.8283C124.109 84.2199 124.359 84.387 124.881 84.6689L125.873 85.1753C126.51 85.4938 126.834 85.8332 126.834 86.6111C126.834 87.6971 126.087 87.9321 124.834 87.9321C124.563 87.9321 123.837 87.8642 123.273 87.7232V87.0497C123.811 87.2168 124.563 87.2899 124.834 87.2899C125.618 87.2899 126.098 87.1593 126.098 86.6111C126.098 86.1569 125.91 85.9898 125.529 85.8019L124.479 85.2641C123.754 84.8882 123.378 84.5749 123.378 83.8074C123.378 82.6536 124.056 82.4238 125.325 82.4238C125.576 82.4238 126.208 82.4604 126.657 82.5909V83.254C126.317 83.1235 125.612 83.066 125.325 83.066H125.315Z" fill="white"/>
<path d="M106.021 46.7285C104.12 45.2144 102.032 43.9143 99.7969 42.8858V47.6944C102.46 49.527 104.799 51.7981 106.71 54.4034V54.4191C108.443 51.2029 110.662 48.0912 113.299 45.2561C115.377 43.0163 117.674 41.0166 120.092 39.3093V35.2734C114.656 38.0145 109.853 42.0713 106.021 46.7285Z" fill="white"/>
<mask id="mask0_2_1593" style="mask-type:luminance" maskUnits="userSpaceOnUse" x="99" y="5" width="23" height="23">
<path d="M121.111 5.36133H99.3906V27.081H121.111V5.36133Z" fill="white"/>
</mask>
<g mask="url(#mask0_2_1593)">
<mask id="mask1_2_1593" style="mask-type:luminance" maskUnits="userSpaceOnUse" x="99" y="5" width="23" height="23">
<path d="M121.111 5.36133H99.3906V27.081H121.111V5.36133Z" fill="white"/>
</mask>
<g mask="url(#mask1_2_1593)">
<path d="M100.932 19.1499C100.958 19.1238 100.984 19.0925 101.005 19.0612C101.026 19.0299 101.047 18.9933 101.063 18.9568C101.078 18.9202 101.089 18.8837 101.094 18.8471C101.099 18.8106 101.104 18.7688 101.104 18.7323C101.104 18.6957 101.104 18.6539 101.094 18.6174C101.089 18.5808 101.073 18.5443 101.063 18.5077C101.047 18.4712 101.031 18.4346 101.005 18.4033C100.984 18.372 100.958 18.3407 100.932 18.3146C100.906 18.2885 100.875 18.2624 100.843 18.2415C100.812 18.2206 100.775 18.1997 100.739 18.184C100.702 18.1684 100.666 18.1579 100.629 18.1475C100.551 18.1318 100.473 18.1318 100.394 18.1475C100.358 18.1527 100.316 18.1684 100.285 18.184C100.248 18.1997 100.212 18.2154 100.18 18.2415C100.149 18.2624 100.118 18.2885 100.091 18.3146C100.065 18.3407 100.039 18.372 100.018 18.4033C99.9975 18.4346 99.9766 18.4712 99.9609 18.5077C99.9453 18.5443 99.9348 18.5808 99.9244 18.6174C99.9192 18.6539 99.9139 18.6957 99.9139 18.7323C99.9139 18.7688 99.9139 18.8106 99.9244 18.8471C99.9296 18.8837 99.9453 18.9254 99.9609 18.9568C99.9766 18.9933 99.9923 19.0299 100.018 19.0612C100.039 19.0925 100.065 19.1238 100.091 19.1499C100.118 19.176 100.149 19.2021 100.18 19.223C100.212 19.2439 100.248 19.2648 100.285 19.2805C100.321 19.2961 100.358 19.3066 100.394 19.3118C100.431 19.317 100.473 19.3222 100.509 19.3222C100.666 19.3222 100.822 19.2596 100.932 19.1499Z" fill="white"/>
<path d="M100.275 14.4928C100.369 14.5502 100.473 14.5763 100.577 14.5763C100.781 14.5763 100.985 14.4719 101.094 14.2787C101.261 13.9916 101.162 13.6261 100.88 13.4642C100.593 13.2972 100.228 13.3964 100.066 13.6783C99.8987 13.9654 99.9979 14.3309 100.28 14.4928" fill="white"/>
<path d="M101.632 13.3172C101.768 13.3172 101.904 13.2702 102.013 13.1814C102.269 12.9726 102.3 12.5967 102.092 12.3408C101.883 12.085 101.507 12.0537 101.251 12.2625C100.995 12.4714 100.964 12.8473 101.173 13.1031C101.293 13.2441 101.46 13.3172 101.632 13.3172Z" fill="white"/>
<path d="M103.067 12.5078C103.13 12.5078 103.197 12.4974 103.265 12.4765C103.579 12.3668 103.74 12.0275 103.631 11.7142C103.521 11.4009 103.182 11.2391 102.869 11.3487C102.555 11.4584 102.393 11.7977 102.503 12.111C102.587 12.3564 102.822 12.513 103.067 12.513" fill="white"/>
<path d="M104.693 12.2314C105.022 12.2314 105.288 11.9651 105.288 11.6362C105.288 11.3073 105.022 11.041 104.693 11.041C104.364 11.041 104.098 11.3073 104.098 11.6362C104.098 11.9651 104.364 12.2314 104.693 12.2314Z" fill="white"/>
<path d="M106.095 12.487C106.162 12.5131 106.236 12.5236 106.303 12.5236C106.544 12.5236 106.773 12.3774 106.862 12.1372C106.977 11.8292 106.82 11.4846 106.512 11.3697C106.204 11.2548 105.86 11.4115 105.745 11.7195C105.63 12.0276 105.786 12.3721 106.095 12.487Z" fill="white"/>
<path d="M99.8886 16.1056C99.9251 16.1108 99.9669 16.116 100.003 16.116C100.285 16.116 100.536 15.9176 100.588 15.6304C100.651 15.3067 100.442 14.9935 100.113 14.9308C99.7894 14.8682 99.4761 15.0822 99.4134 15.4059C99.3508 15.7296 99.5596 16.0429 99.8886 16.1056Z" fill="white"/>
<path d="M100.091 17.7501C100.415 17.6927 100.634 17.3847 100.582 17.061C100.525 16.7373 100.217 16.518 99.893 16.5702C99.5693 16.6276 99.35 16.9357 99.4022 17.2594C99.4544 17.5517 99.705 17.7554 99.9922 17.7554C100.024 17.7554 100.06 17.7554 100.091 17.7449" fill="white"/>
<path d="M107.527 12.9783C107.558 12.9992 107.595 13.02 107.631 13.0357C107.668 13.0514 107.704 13.0618 107.741 13.067C107.777 13.0775 107.819 13.0775 107.856 13.0775C108.012 13.0775 108.169 13.0148 108.279 12.9C108.388 12.7903 108.451 12.6337 108.451 12.4771C108.451 12.4405 108.451 12.3987 108.44 12.3622C108.435 12.3256 108.42 12.2839 108.409 12.2525C108.393 12.216 108.378 12.1795 108.352 12.1481C108.331 12.1168 108.305 12.0855 108.279 12.0594C108.138 11.9184 107.934 11.8557 107.741 11.8975C107.704 11.9027 107.662 11.9184 107.631 11.9288C107.595 11.9445 107.558 11.9602 107.527 11.9863C107.495 12.0072 107.464 12.0333 107.438 12.0594C107.412 12.0855 107.386 12.1168 107.365 12.1481C107.344 12.1795 107.323 12.216 107.307 12.2525C107.292 12.2891 107.281 12.3256 107.276 12.3622C107.266 12.3987 107.266 12.4405 107.266 12.4771C107.266 12.6337 107.328 12.7903 107.443 12.9C107.469 12.9261 107.501 12.9522 107.532 12.9731" fill="white"/>
<path d="M120.55 18.497C120.534 18.4605 120.518 18.4239 120.492 18.3926C120.471 18.3613 120.445 18.3299 120.419 18.3038C120.393 18.2777 120.362 18.2516 120.33 18.2307C120.299 18.2098 120.263 18.189 120.226 18.1733C120.189 18.1576 120.153 18.1472 120.116 18.1367C120.038 18.1211 119.96 18.1211 119.881 18.1367C119.845 18.142 119.808 18.1576 119.772 18.1733C119.735 18.189 119.699 18.2046 119.667 18.2307C119.636 18.2516 119.605 18.2777 119.579 18.3038C119.552 18.3299 119.526 18.3613 119.505 18.3926C119.485 18.4239 119.464 18.4605 119.448 18.497C119.432 18.5335 119.422 18.5701 119.417 18.6066C119.406 18.6432 119.406 18.685 119.406 18.7215C119.406 18.7581 119.406 18.7998 119.417 18.8364C119.422 18.8729 119.438 18.9147 119.448 18.946C119.464 18.9826 119.479 19.0191 119.505 19.0504C119.526 19.0818 119.552 19.1131 119.579 19.1392C119.688 19.2488 119.845 19.3115 120.001 19.3115C120.038 19.3115 120.08 19.3115 120.116 19.301C120.153 19.2958 120.195 19.2802 120.226 19.2697C120.263 19.2541 120.299 19.2384 120.33 19.2123C120.362 19.1914 120.393 19.1653 120.419 19.1392C120.445 19.1131 120.471 19.0818 120.492 19.0504C120.513 19.0191 120.534 18.9826 120.55 18.946C120.565 18.9095 120.576 18.8729 120.581 18.8364C120.586 18.7998 120.591 18.7581 120.591 18.7215C120.591 18.685 120.591 18.6432 120.581 18.6066C120.576 18.5701 120.56 18.5335 120.55 18.497Z" fill="white"/>
<path d="M117.243 12.4714C117.306 12.4923 117.374 12.5027 117.441 12.5027C117.687 12.5027 117.922 12.3461 118.005 12.1007C118.115 11.7874 117.948 11.4481 117.64 11.3384C117.327 11.2288 116.987 11.3958 116.878 11.7039C116.768 12.0172 116.935 12.3565 117.243 12.4662" fill="white"/>
<path d="M118.491 13.1771C118.601 13.2711 118.737 13.3129 118.873 13.3129C119.045 13.3129 119.217 13.2398 119.332 13.0936C119.541 12.8378 119.504 12.4619 119.254 12.253C118.998 12.0442 118.622 12.0807 118.413 12.3313C118.204 12.5872 118.241 12.9631 118.491 13.1719" fill="white"/>
<path d="M119.415 14.273C119.524 14.4662 119.728 14.5706 119.931 14.5706C120.036 14.5706 120.135 14.5445 120.229 14.4871C120.516 14.32 120.61 13.9545 120.443 13.6726C120.276 13.3855 119.911 13.2915 119.629 13.4585C119.342 13.6256 119.248 13.9911 119.415 14.273Z" fill="white"/>
<path d="M115.818 12.2314C116.147 12.2314 116.413 11.9651 116.413 11.6362C116.413 11.3073 116.147 11.041 115.818 11.041C115.489 11.041 115.222 11.3073 115.222 11.6362C115.222 11.9651 115.489 12.2314 115.818 12.2314Z" fill="white"/>
<path d="M120.392 14.9308C120.069 14.9935 119.854 15.3067 119.917 15.6304C119.975 15.9176 120.22 16.116 120.502 16.116C120.538 16.116 120.58 16.116 120.617 16.1056C120.94 16.0429 121.155 15.7296 121.092 15.4059C121.029 15.0822 120.716 14.8682 120.392 14.9308Z" fill="white"/>
<path d="M120.612 16.5755C120.289 16.5181 119.981 16.7374 119.923 17.0663C119.866 17.39 120.085 17.6981 120.414 17.7555C120.445 17.7607 120.482 17.7659 120.513 17.7659C120.8 17.7659 121.051 17.5571 121.103 17.2699C121.161 16.9462 120.941 16.6382 120.612 16.5808" fill="white"/>
<path d="M114.198 12.5236C114.271 12.5236 114.339 12.5131 114.407 12.487C114.715 12.3721 114.871 12.0276 114.757 11.7195C114.642 11.4115 114.297 11.2548 113.989 11.3697C113.681 11.4846 113.524 11.8292 113.639 12.1372C113.728 12.3774 113.958 12.5236 114.198 12.5236Z" fill="white"/>
<path d="M112.094 12.7061C112.11 12.7427 112.125 12.7792 112.146 12.8106C112.167 12.8419 112.193 12.8732 112.219 12.8993C112.245 12.9254 112.277 12.9515 112.308 12.9724C112.339 12.9933 112.376 13.0142 112.412 13.0298C112.449 13.0455 112.485 13.056 112.522 13.0612C112.559 13.0716 112.6 13.0716 112.637 13.0716C112.794 13.0716 112.95 13.009 113.06 12.8941C113.086 12.868 113.112 12.8367 113.133 12.8053C113.154 12.774 113.175 12.7375 113.185 12.7009C113.201 12.6644 113.211 12.6278 113.222 12.5913C113.227 12.5547 113.232 12.513 113.232 12.4764C113.232 12.3198 113.169 12.1631 113.06 12.0535C112.919 11.9125 112.715 11.8499 112.522 11.8917C112.485 11.8969 112.449 11.9125 112.412 11.923C112.376 11.9386 112.339 11.9543 112.308 11.9804C112.277 12.0013 112.245 12.0274 112.219 12.0535C112.11 12.1631 112.047 12.3198 112.047 12.4764C112.047 12.513 112.047 12.5547 112.057 12.5913C112.063 12.6278 112.078 12.6696 112.094 12.7009" fill="white"/>
<path d="M119.077 19.0921C118.978 18.8415 118.983 18.5647 119.093 18.3037L119.286 17.8547C119.683 16.9358 119.699 15.9177 119.333 14.9883C118.962 14.059 118.257 13.328 117.339 12.9312C116.425 12.5344 115.407 12.5187 114.477 12.8842L114.43 12.8999H114.42C113.501 13.3071 112.535 13.5734 111.548 13.6987C111.501 13.2706 111.245 12.8999 110.885 12.7015C111.47 12.4561 111.882 11.8765 111.882 11.1978C111.882 10.7906 111.736 10.4251 111.491 10.1379L111.12 9.70458C110.807 9.33388 110.598 8.87443 110.541 8.36276C111.047 8.42019 111.512 8.62903 111.882 8.9423V7.20368C111.512 7.51695 111.052 7.72579 110.541 7.78322C110.598 7.27678 110.807 6.8121 111.12 6.44141H109.381C109.695 6.8121 109.904 7.27156 109.961 7.78322C109.455 7.72579 108.99 7.51695 108.619 7.20368V8.9423C108.99 8.62903 109.449 8.42019 109.961 8.36276C109.904 8.8692 109.695 9.33388 109.381 9.70458L109.011 10.1379C108.765 10.4251 108.619 10.7906 108.619 11.1978C108.619 11.8713 109.032 12.4561 109.616 12.7015C109.256 12.8999 109 13.2706 108.953 13.6987C107.961 13.5734 107.001 13.3123 106.076 12.9051L106.024 12.8842C105.095 12.5187 104.082 12.5344 103.163 12.9312C102.244 13.328 101.534 14.059 101.169 14.9883C100.798 15.9177 100.813 16.9358 101.215 17.8547L101.409 18.3089C101.518 18.5647 101.529 18.8467 101.424 19.0973C101.325 19.3479 101.122 19.5515 100.855 19.6664L100.422 19.8543L102.067 23.979L102.824 25.9003C105.137 24.9136 107.653 24.3915 110.248 24.3915C112.843 24.3915 115.354 24.9136 117.673 25.9003L118.43 23.979L120.08 19.8491L119.646 19.6612C119.38 19.5463 119.182 19.3427 119.077 19.0921ZM107.622 22.1464C106.39 22.1464 105.528 21.2484 105.56 20.2825C105.575 20.0475 105.768 19.8596 106.009 19.8596C106.249 19.8596 106.458 20.058 106.458 20.3086C106.458 20.4234 106.416 20.5279 106.343 20.6062C106.745 20.5435 107.053 20.1989 107.053 19.7812C107.053 19.3218 106.677 18.9459 106.217 18.9459C105.8 18.9459 105.455 19.2539 105.392 19.6507H105.382C105.413 19.3844 105.398 19.0607 105.319 18.7161C105.142 17.933 104.719 17.3639 104.374 17.4422C104.035 17.5257 103.899 18.2201 104.071 18.9981C104.15 19.3427 104.27 19.6455 104.416 19.87H104.406C104.176 19.5359 103.732 19.4106 103.356 19.5881C102.938 19.7865 102.761 20.2877 102.959 20.7002C103.137 21.0761 103.565 21.2588 103.957 21.1387C103.857 21.097 103.779 21.0239 103.727 20.9194C103.622 20.6949 103.716 20.4287 103.941 20.3242C104.16 20.2198 104.421 20.3086 104.531 20.5174C104.97 21.3737 104.573 22.5536 103.466 23.081C103.262 23.1749 103.053 23.2376 102.845 23.2689L101.665 20.319C101.962 20.0997 102.197 19.8021 102.338 19.4575C102.536 18.9615 102.526 18.4185 102.312 17.9173L102.119 17.4631C101.826 16.7844 101.811 16.0325 102.087 15.3433C102.359 14.6542 102.881 14.1164 103.565 13.8188C104.239 13.5264 104.98 13.516 105.664 13.777C106.719 14.2417 107.82 14.5445 108.959 14.6698V18.147C109.397 18.476 109.71 18.9615 109.815 19.5202C108.917 19.3949 108.139 18.8884 107.653 18.1679V21.6452C108.144 20.9247 108.922 20.4182 109.82 20.2929C109.643 21.3423 108.729 22.1412 107.627 22.1412M117.662 23.2741C117.453 23.2428 117.245 23.1802 117.041 23.0862C115.929 22.5589 115.537 21.3789 115.976 20.5226C116.085 20.3138 116.347 20.225 116.566 20.3295C116.79 20.4339 116.884 20.7054 116.78 20.9247C116.733 21.0291 116.649 21.1022 116.55 21.1439C116.942 21.2588 117.365 21.0813 117.547 20.7054C117.746 20.2877 117.568 19.7917 117.151 19.5933C116.775 19.4158 116.331 19.5411 116.101 19.8752H116.091C116.237 19.6455 116.357 19.3479 116.435 19.0033C116.608 18.2254 116.472 17.5362 116.132 17.4526C115.788 17.3743 115.365 17.9434 115.187 18.7214C115.109 19.066 115.093 19.3897 115.125 19.6559H115.114C115.052 19.2539 114.707 18.9511 114.289 18.9511C113.83 18.9511 113.454 19.327 113.454 19.7865C113.454 20.2042 113.762 20.5487 114.164 20.6114C114.096 20.5331 114.049 20.4287 114.049 20.3138C114.049 20.0684 114.248 19.8648 114.498 19.8648C114.749 19.8648 114.932 20.0527 114.947 20.2877C114.979 21.2536 114.117 22.1516 112.885 22.1516C111.783 22.1516 110.869 21.3528 110.692 20.3034C111.595 20.4287 112.373 20.9351 112.859 21.6556V18.1784C112.373 18.8989 111.595 19.4053 110.697 19.5306C110.802 18.972 111.115 18.4864 111.553 18.1575V14.6803C112.692 14.5497 113.793 14.2521 114.848 13.7875C115.532 13.5212 116.273 13.5368 116.947 13.8292C117.626 14.1216 118.148 14.6646 118.425 15.3538C118.696 16.043 118.686 16.7948 118.393 17.4735L118.2 17.9225C117.986 18.4238 117.976 18.9668 118.174 19.4628C118.315 19.8074 118.545 20.105 118.847 20.3242L117.667 23.2741H117.662Z" fill="white"/>
</g>
</g>
<path d="M110.251 28.0727C118.735 28.0727 125.638 34.975 125.638 43.4592C125.638 51.9435 118.735 58.8457 110.251 58.8457C101.766 58.8457 94.8638 51.9435 94.8638 43.4592C94.8638 34.975 101.766 28.0727 110.251 28.0727ZM110.251 26.2871C100.764 26.2871 93.0781 33.9777 93.0781 43.4592C93.0781 52.9407 100.769 60.6313 110.251 60.6313C119.732 60.6313 127.423 52.9407 127.423 43.4592C127.423 33.9777 119.732 26.2871 110.251 26.2871Z" fill="white"/>
<path d="M143.258 4.6567V90.298H77.2414V4.6567H143.258ZM145.044 2.87109H75.4609V92.0783H145.044V2.87109Z" fill="white"/>
<path d="M90.954 71.3563C92.3429 71.3563 93.1469 70.782 93.1469 68.9911V63.5508H95.4338V68.7927C95.4338 71.821 94.045 73.0427 90.8966 73.0427C87.7482 73.0427 86.3594 71.821 86.3594 68.7927V63.5508H88.7559V68.9911C88.7559 70.782 89.56 71.3563 90.9488 71.3563H90.954Z" fill="white"/>
<path d="M102.042 63.5508V67.31C102.042 67.4196 102.089 67.4666 102.199 67.4666H102.789C102.93 67.4666 103.003 67.4353 103.081 67.3413L106.094 63.5508H108.908L105.436 67.8164C105.374 67.8947 105.358 67.9104 105.358 67.9887V68.1558C105.358 68.2341 105.374 68.2654 105.436 68.3281L109.456 72.9122H106.23L103.076 69.0068C103.014 68.9285 102.967 68.8972 102.826 68.8972H102.194C102.084 68.8972 102.037 68.9441 102.037 69.0538V72.9069H99.6406V63.5508H102.037H102.042Z" fill="white"/>
<path d="M120.155 72.9069L119.409 70.9229C119.351 70.782 119.283 70.7611 119.142 70.7663C118.808 70.7663 117.889 70.7663 116.981 70.7663C116.14 70.7663 115.331 70.7715 115.012 70.7663C114.872 70.7663 114.798 70.782 114.746 70.9229L113.994 72.9069H111.535L115.425 63.5508H118.819L122.709 72.9069H120.166H120.155ZM118.584 69.0486C118.652 69.0486 118.699 68.9807 118.673 68.918L117.32 65.4043C117.278 65.2998 117.242 65.279 117.148 65.279H117.007C116.913 65.279 116.871 65.3051 116.835 65.4043L115.488 68.918C115.461 68.9807 115.508 69.0486 115.576 69.0486H118.589H118.584Z" fill="white"/>
<path d="M133.371 63.8637C133.564 63.9211 133.616 63.942 133.616 63.942V64.5163V65.3465V65.6336C133.616 65.6336 133.298 65.5657 133.246 65.5605C132.671 65.4404 131.434 65.1637 130.019 65.1637C128.912 65.1637 127.967 65.3204 127.967 66.1035C127.967 66.8867 128.62 66.9493 130.249 67.1843C132.609 67.5236 134.139 67.9204 134.139 70.1237C134.139 72.5307 131.732 73.0423 129.46 73.0423C127.857 73.0423 126.077 72.7291 125.727 72.5985C125.539 72.5359 125.524 72.5307 125.524 72.5307V71.8467V70.9539V70.7242C125.524 70.7242 125.785 70.7816 125.837 70.7973C127.074 71.0949 128.338 71.3089 129.695 71.3089C130.379 71.3089 131.69 71.2619 131.69 70.3169C131.69 69.633 131.392 69.4346 129.476 69.1631C127.189 68.8394 125.55 68.3329 125.55 66.2601C125.55 63.9002 127.763 63.4355 130.076 63.4355C131.559 63.4355 133.058 63.7436 133.371 63.8532V63.8637Z" fill="white"/>
<path d="M82.5939 28.0469H77.2422V28.9919H82.5939V28.0469Z" fill="white"/>
<path d="M82.5939 42.9902H77.2422V43.9353H82.5939V42.9902Z" fill="white"/>
<path d="M79.9207 31.0332H77.2422V31.9782H79.9207V31.0332Z" fill="white"/>
<path d="M79.9207 34.0254H77.2422V34.9704H79.9207V34.0254Z" fill="white"/>
<path d="M79.9207 37.0117H77.2422V37.9567H79.9207V37.0117Z" fill="white"/>
<path d="M79.9207 40.0039H77.2422V40.9489H79.9207V40.0039Z" fill="white"/>
<path d="M82.3694 57.9326H77.2422V58.8776H82.3694V57.9326Z" fill="white"/>
<path d="M79.9207 45.9766H77.2422V46.9216H79.9207V45.9766Z" fill="white"/>
<path d="M79.9207 48.9678H77.2422V49.9128H79.9207V48.9678Z" fill="white"/>
<path d="M79.9207 51.9551H77.2422V52.9001H79.9207V51.9551Z" fill="white"/>
<path d="M79.9207 54.9414H77.2422V55.8864H79.9207V54.9414Z" fill="white"/>
<path d="M143.258 57.9326H137.906V58.8776H143.258V57.9326Z" fill="white"/>
<path d="M143.258 42.9902H137.906V43.9353H143.258V42.9902Z" fill="white"/>
<path d="M143.261 54.9414H140.582V55.8864H143.261V54.9414Z" fill="white"/>
<path d="M143.261 51.9551H140.582V52.9001H143.261V51.9551Z" fill="white"/>
<path d="M143.261 48.9678H140.582V49.9128H143.261V48.9678Z" fill="white"/>
<path d="M143.261 45.9766H140.582V46.9216H143.261V45.9766Z" fill="white"/>
<path d="M143.256 28.0469H138.129V28.9919H143.256V28.0469Z" fill="white"/>
<path d="M143.261 40.0039H140.582V40.9489H143.261V40.0039Z" fill="white"/>
<path d="M143.261 37.0117H140.582V37.9567H143.261V37.0117Z" fill="white"/>
<path d="M143.261 34.0254H140.582V34.9704H143.261V34.0254Z" fill="white"/>
<path d="M143.261 31.0332H140.582V31.9782H143.261V31.0332Z" fill="white"/>
<path d="M18.0742 61.7808V55.0195H19.4631V61.7808H18.0742Z" fill="white"/>
<path d="M20.6055 59.6925H21.9786C22.0309 60.0632 22.1823 60.3347 22.4329 60.5174C22.6835 60.7002 23.0438 60.7837 23.5189 60.7837C23.9209 60.7837 24.229 60.7106 24.4326 60.5697C24.6362 60.4287 24.7407 60.2146 24.7407 59.9327C24.7407 59.5202 24.1507 59.1808 22.9759 58.9146C22.9602 58.9146 22.9446 58.9094 22.9341 58.9041C22.9028 58.8989 22.8558 58.8885 22.7931 58.8728C22.1614 58.7371 21.7124 58.5804 21.4461 58.4081C21.2059 58.2567 21.0232 58.0479 20.8979 57.792C20.7725 57.5362 20.7099 57.2282 20.7099 56.8784C20.7099 56.2205 20.9344 55.7141 21.3782 55.3642C21.822 55.0144 22.4694 54.8369 23.3153 54.8369C24.1037 54.8369 24.7198 55.0249 25.1688 55.3956C25.6178 55.7663 25.8475 56.2936 25.8737 56.9723H24.537C24.5109 56.6434 24.3856 56.398 24.1611 56.2257C23.9366 56.0534 23.6129 55.9699 23.1952 55.9699C22.8297 55.9699 22.553 56.043 22.3546 56.184C22.1562 56.3249 22.057 56.5285 22.057 56.7948C22.057 57.1551 22.4433 57.4213 23.2108 57.5989C23.4197 57.6459 23.5815 57.6876 23.6964 57.7137C24.1872 57.839 24.537 57.9382 24.7459 58.0061C24.9547 58.074 25.1322 58.1523 25.2837 58.2411C25.5604 58.3925 25.764 58.5961 25.905 58.8467C26.046 59.0973 26.1138 59.4001 26.1138 59.7552C26.1138 60.46 25.8789 61.003 25.4037 61.3894C24.9286 61.7757 24.2603 61.9689 23.3988 61.9689C22.5373 61.9689 21.8794 61.7705 21.3991 61.3789C20.9187 60.9873 20.6577 60.4235 20.6211 59.6925H20.6055Z" fill="white"/>
<path d="M26.8945 58.4084C26.8945 57.3172 27.1921 56.4505 27.7874 55.8083C28.3826 55.1661 29.1866 54.8477 30.1943 54.8477C31.202 54.8477 32.0061 55.1714 32.6065 55.8136C33.2017 56.4557 33.5046 57.3224 33.5046 58.4084C33.5046 59.4944 33.207 60.3611 32.6065 61.0033C32.0061 61.6455 31.202 61.9692 30.1943 61.9692C29.1866 61.9692 28.3826 61.6455 27.7874 61.0033C27.1921 60.3611 26.8945 59.4944 26.8945 58.4084ZM28.3095 58.4084C28.3095 59.1498 28.4766 59.7294 28.8055 60.1418C29.1344 60.5543 29.5991 60.7579 30.1891 60.7579C30.7791 60.7579 31.2542 60.5543 31.5884 60.1418C31.9225 59.7294 32.0896 59.155 32.0896 58.4084C32.0896 57.6618 31.9225 57.0875 31.5884 56.675C31.2542 56.2626 30.7895 56.0589 30.1891 56.0589C29.5887 56.0589 29.1344 56.2626 28.8055 56.675C28.4766 57.0875 28.3095 57.6618 28.3095 58.4084Z" fill="white"/>
<path d="M40.2023 59.2064C40.0509 59.3578 39.8682 59.4726 39.6593 59.551C39.4505 59.6293 39.2155 59.6658 38.9597 59.6658C38.3123 59.6658 37.7954 59.4727 37.409 59.0811C37.0226 58.6895 36.8242 58.1726 36.8242 57.52C36.8242 56.8308 37.0331 56.2721 37.456 55.844C37.8789 55.4159 38.4376 55.207 39.1268 55.207C39.9308 55.207 40.5365 55.4838 40.9542 56.0372C41.3719 56.5906 41.5807 57.3947 41.5807 58.4545C41.5807 59.5927 41.3562 60.4647 40.9124 61.0703C40.4686 61.6759 39.8212 61.9788 38.9858 61.9788C38.4062 61.9788 37.9416 61.8274 37.5865 61.5245C37.2315 61.2217 37.0383 60.8145 37.0017 60.2924H38.3279C38.3593 60.5064 38.4428 60.6631 38.5733 60.7675C38.7038 60.8719 38.897 60.9241 39.1424 60.9241C39.4714 60.9241 39.7272 60.7779 39.8995 60.4908C40.0718 60.2036 40.171 59.7755 40.1971 59.2012L40.2023 59.2064ZM40.1814 57.4939C40.1814 57.1179 40.0875 56.8203 39.8995 56.6011C39.7115 56.3818 39.4557 56.2721 39.132 56.2721C38.8239 56.2721 38.589 56.3766 38.4167 56.5906C38.2444 56.7995 38.1608 57.0971 38.1608 57.4782C38.1608 57.8332 38.2496 58.1099 38.4271 58.3083C38.6046 58.5068 38.8553 58.606 39.1738 58.606C39.4922 58.606 39.7376 58.5068 39.9152 58.3136C40.0927 58.1204 40.1814 57.8437 40.1814 57.4991V57.4939Z" fill="white"/>
<path d="M42.1914 58.5909C42.1914 57.4632 42.3898 56.6174 42.7814 56.0535C43.173 55.4896 43.7682 55.2129 44.5618 55.2129C45.3555 55.2129 45.9507 55.4948 46.3423 56.0587C46.7391 56.6226 46.9375 57.4684 46.9375 58.5961C46.9375 59.7239 46.7391 60.5697 46.3475 61.1231C45.9559 61.6818 45.3607 61.9585 44.5618 61.9585C43.763 61.9585 43.173 61.6766 42.7814 61.1179C42.3898 60.5593 42.1914 59.7135 42.1914 58.5857V58.5909ZM43.5541 58.5909C43.5541 59.3897 43.6325 59.9693 43.7943 60.3295C43.9562 60.6898 44.212 60.8725 44.5618 60.8725C44.9116 60.8725 45.1727 60.6898 45.3346 60.3243C45.4964 59.9588 45.58 59.3845 45.58 58.5909C45.58 57.7973 45.4964 57.2178 45.3346 56.8575C45.1727 56.4973 44.9169 56.3145 44.5618 56.3145C44.2068 56.3145 43.9562 56.4921 43.7943 56.8523C43.6325 57.2126 43.5541 57.7921 43.5541 58.5909Z" fill="white"/>
<path d="M47.5156 58.5909C47.5156 57.4632 47.714 56.6174 48.1056 56.0535C48.4972 55.4896 49.0924 55.2129 49.886 55.2129C50.6797 55.2129 51.2749 55.4948 51.6665 56.0587C52.0633 56.6226 52.2617 57.4684 52.2617 58.5961C52.2617 59.7239 52.0633 60.5697 51.6717 61.1231C51.2801 61.6818 50.6849 61.9585 49.886 61.9585C49.0872 61.9585 48.4972 61.6766 48.1056 61.1179C47.714 60.5593 47.5156 59.7135 47.5156 58.5857V58.5909ZM48.8784 58.5909C48.8784 59.3897 48.9567 59.9693 49.1185 60.3295C49.2804 60.6898 49.5362 60.8725 49.886 60.8725C50.2359 60.8725 50.4969 60.6898 50.6588 60.3243C50.8206 59.9588 50.9042 59.3845 50.9042 58.5909C50.9042 57.7973 50.8206 57.2178 50.6588 56.8575C50.4969 56.4973 50.2411 56.3145 49.886 56.3145C49.531 56.3145 49.2804 56.4921 49.1185 56.8523C48.9567 57.2126 48.8784 57.7921 48.8784 58.5909Z" fill="white"/>
<path d="M54.8685 61.7804V57.2902H53.2969V56.3661H53.3961C53.9704 56.3661 54.3829 56.2774 54.6439 56.0998C54.905 55.9223 55.0616 55.6247 55.1034 55.207H56.1529V61.7804H54.858H54.8685Z" fill="white"/>
<path d="M25.4115 88.3612C25.2183 88.4918 24.999 88.5857 24.7432 88.6536C24.4874 88.7215 24.2106 88.7528 23.913 88.7528C23.0672 88.7528 22.3989 88.4865 21.9029 87.9488C21.4069 87.411 21.1562 86.6853 21.1562 85.7768C21.1562 84.8683 21.4069 84.1374 21.9029 83.6048C22.3989 83.0671 23.0724 82.8008 23.913 82.8008C24.7537 82.8008 25.4272 83.0671 25.9284 83.6048C26.4297 84.1426 26.6803 84.8683 26.6803 85.7768C26.6803 86.1736 26.6281 86.5391 26.5289 86.8732C26.4244 87.2021 26.2782 87.4945 26.0746 87.7399L26.6907 88.3247L26.059 88.9825L25.4167 88.356L25.4115 88.3612ZM24.5918 87.5937L23.9914 87.009L24.6283 86.3511L25.2444 86.9515C25.328 86.8001 25.3906 86.6226 25.4324 86.4242C25.4742 86.2258 25.4951 86.0117 25.4951 85.782C25.4951 85.1607 25.3541 84.6751 25.0774 84.3358C24.8006 83.9912 24.4091 83.8189 23.9078 83.8189C23.4066 83.8189 23.0254 83.9912 22.7487 84.3306C22.472 84.6752 22.3362 85.1555 22.3362 85.782C22.3362 86.4085 22.472 86.8889 22.7487 87.2283C23.0254 87.5676 23.4118 87.7451 23.9078 87.7451C24.0384 87.7451 24.1584 87.7347 24.2681 87.7086C24.3829 87.6825 24.4874 87.6459 24.5866 87.5989L24.5918 87.5937Z" fill="#181818"/>
<path d="M27.5625 82.9316H28.7373V86.4768C28.7373 86.9153 28.826 87.2338 28.9983 87.4322C29.1706 87.6306 29.4474 87.735 29.8285 87.735C30.2096 87.735 30.4916 87.6358 30.6691 87.4374C30.8466 87.239 30.9302 86.9205 30.9302 86.4768V82.9316H32.0945V86.6021C32.0945 87.2965 31.9013 87.829 31.5149 88.1997C31.1286 88.5704 30.5699 88.7584 29.8389 88.7584C29.108 88.7584 28.5441 88.5756 28.1525 88.2049C27.7609 87.8342 27.5677 87.3017 27.5677 86.6073V82.9369L27.5625 82.9316Z" fill="#181818"/>
<path d="M34.5193 82.9473H35.8611L37.8974 88.6017H36.6756L36.2893 87.4374H34.0964L33.7257 88.6017H32.5039L34.5141 82.9473H34.5193ZM35.1928 84.0802L34.4096 86.4872H35.9812L35.1928 84.0802Z" fill="#181818"/>
<path d="M38.4844 88.5958V82.9414H39.6487V87.5516H42.4055V88.5958H38.4844Z" fill="#181818"/>
<path d="M43.0781 88.5958V82.9414H44.2424V88.5958H43.0781Z" fill="#181818"/>
<path d="M46.6252 88.5965V83.9549H44.9492V82.9473H49.4551V83.9549H47.7896V88.5965H46.6252Z" fill="#181818"/>
<path d="M52.6538 88.5965H51.4894V86.4924L49.4375 82.9473H50.8629L52.069 85.3855L53.1863 82.9473H54.5125L52.6538 86.4924V88.5965Z" fill="#181818"/>
<path d="M9.61591 98.0255V92.3711H11.3337L12.4562 96.6733L13.5631 92.3711H15.2914V98.0255H14.2001V93.4675L13.0515 98.0255H11.861L10.6967 93.4675V98.0255H9.60547H9.61591Z" fill="#181818"/>
<path d="M17.8982 92.377H19.24L21.2763 98.0314H20.0545L19.6682 96.8671H17.4753L17.1046 98.0314H15.8828L17.893 92.377H17.8982ZM18.577 93.5099L17.7938 95.9168H19.3653L18.577 93.5099Z" fill="#181818"/>
<path d="M21.8633 98.0255V92.3711H23.0798L25.3771 96.2556V92.3711H26.5258V98.0255H25.3249L23.0172 94.141V98.0255H21.8685H21.8633Z" fill="#181818"/>
<path d="M29.1171 92.376H30.4589L32.4952 98.0304H31.2734L30.8871 96.8661H28.6941L28.3234 98.0304H27.1017L29.1118 92.376H29.1171ZM29.7906 93.509L29.0074 95.9159H30.579L29.7906 93.509Z" fill="#181818"/>
<path d="M37.1486 97.3628C36.9398 97.6447 36.6996 97.8536 36.4333 97.9893C36.1671 98.1198 35.8538 98.1877 35.4935 98.1877C34.7051 98.1877 34.0629 97.911 33.5721 97.3628C33.0813 96.8146 32.8359 96.0941 32.8359 95.2013C32.8359 94.3085 33.0813 93.5827 33.5669 93.0397C34.0577 92.502 34.7051 92.2305 35.5196 92.2305C36.2297 92.2305 36.804 92.4028 37.2531 92.7369C37.7021 93.0763 37.9684 93.541 38.0519 94.1362H36.8667C36.7936 93.8438 36.6474 93.6193 36.4281 93.4626C36.2088 93.306 35.9164 93.2329 35.5614 93.2329C35.0863 93.2329 34.7156 93.4052 34.4493 93.755C34.1778 94.0996 34.042 94.58 34.042 95.1908C34.042 95.8017 34.183 96.2872 34.465 96.6318C34.7469 96.9816 35.1333 97.1539 35.6241 97.1539C35.9948 97.1539 36.3028 97.0443 36.5482 96.8302C36.7988 96.611 36.9502 96.3134 37.0077 95.9374H35.7285V94.9715H38.0676V98.0311H37.2896L37.1486 97.3628Z" fill="#181818"/>
<path d="M39.1849 98.0255V92.3711H43.2888V93.3527H40.3283V94.5587H43.0329V95.5246H40.3283V96.9813H43.4245V98.0255H39.1797H39.1849Z" fill="#181818"/>
<path d="M44.3151 98.0255V92.3711H46.0329L47.1555 96.6733L48.2624 92.3711H49.9906V98.0255H48.8993V93.4675L47.7507 98.0255H46.5602L45.3959 93.4675V98.0255H44.3047H44.3151Z" fill="#181818"/>
<path d="M51.1654 98.0255V92.3711H55.2692V93.3527H52.3088V94.5587H55.0134V95.5246H52.3088V96.9813H55.405V98.0255H51.1602H51.1654Z" fill="#181818"/>
<path d="M56.2969 98.0255V92.3711H57.5134L59.8107 96.2556V92.3711H60.9594V98.0255H59.7585L57.4508 94.141V98.0255H56.3021H56.2969Z" fill="#181818"/>
<path d="M63.2893 98.0262V93.3846H61.6133V92.377H66.1192V93.3846H64.4536V98.0262H63.2893Z" fill="#181818"/>
<path d="M105.811 100.526C105.811 102.317 105.148 103.304 103.978 103.304C102.95 103.304 102.25 102.338 102.234 100.599C102.234 98.8347 102.997 97.8584 104.067 97.8584C105.137 97.8584 105.811 98.8452 105.811 100.526ZM102.95 100.605C102.95 101.973 103.373 102.751 104.02 102.751C104.751 102.751 105.096 101.9 105.096 100.552C105.096 99.2054 104.761 98.4066 104.025 98.4066C103.399 98.4066 102.95 99.1689 102.95 100.605Z" fill="white"/>
<path d="M109.967 100.526C109.967 102.317 109.304 103.304 108.134 103.304C107.106 103.304 106.406 102.338 106.391 100.599C106.391 98.8347 107.153 97.8584 108.223 97.8584C109.293 97.8584 109.967 98.8452 109.967 100.526ZM107.106 100.605C107.106 101.973 107.529 102.751 108.176 102.751C108.907 102.751 109.252 101.9 109.252 100.552C109.252 99.2054 108.918 98.4066 108.181 98.4066C107.555 98.4066 107.106 99.1689 107.106 100.605Z" fill="white"/>
<path d="M112.171 98.6103H112.155L111.241 99.1063L111.105 98.5633L112.254 97.9473H112.86V103.215H112.171V98.6156V98.6103Z" fill="white"/>
<path d="M117.923 98.5474H115.913L115.709 99.8996C115.829 99.8839 115.944 99.8683 116.138 99.8683C116.545 99.8683 116.947 99.957 117.271 100.15C117.683 100.385 118.022 100.839 118.022 101.502C118.022 102.531 117.203 103.304 116.064 103.304C115.49 103.304 115.005 103.142 114.754 102.98L114.931 102.437C115.151 102.568 115.579 102.729 116.059 102.729C116.733 102.729 117.307 102.291 117.307 101.586C117.297 100.907 116.848 100.422 115.793 100.422C115.495 100.422 115.26 100.453 115.062 100.479L115.401 97.9521H117.923V98.5526V98.5474Z" fill="white"/>
</svg>