<svg width="138" height="33" viewBox="0 0 138 33" fill="none" xmlns="http://www.w3.org/2000/svg">
<g clip-path="url(#clip0_0_1610)">
<path d="M10.553 7.855H10.508C8.32898 7.855 6.46059 8.66974 5.10994 10.0832V8.2016H0V32.4953H5.10994V24.6945C6.43358 26.0854 8.25245 26.9002 10.4045 26.8957H10.436H10.4495C13.0472 26.8957 15.2443 25.9324 16.748 24.2309C18.2562 22.5294 19.0531 20.1481 19.0486 17.3798C19.0486 14.607 18.2607 12.2258 16.775 10.5243C15.2938 8.82278 13.1193 7.85049 10.553 7.855ZM12.8311 20.9989C12.1603 21.7011 11.1068 22.1017 9.45002 22.1062C7.77522 22.1062 6.71271 21.7011 6.03739 20.9989C5.36206 20.2967 4.96587 19.1443 4.96587 17.3753C4.96587 15.6063 5.36206 14.454 6.03739 13.7517C6.71271 13.0495 7.77522 12.6489 9.45002 12.6444C11.1068 12.6444 12.1603 13.045 12.8311 13.7517C13.502 14.454 13.9026 15.6063 13.9026 17.3753C13.9026 19.1443 13.5065 20.2967 12.8311 20.9989Z" fill="white"/>
<path d="M54.8135 19.2975V19.3065L54.3003 20.9134L53.8231 19.3425L50.0007 8.20166H44.373L51.9367 27.7735H45.8137V32.4954H50.1898C51.8061 32.4954 53.0847 32.2298 54.1067 31.5366C55.1287 30.8434 55.795 29.7856 56.3263 28.4442L64.3041 8.20166H58.6719L54.8135 19.2975Z" fill="white"/>
<path d="M105.256 10.5245C103.775 8.82297 101.6 7.85068 99.034 7.85518H98.989C96.8099 7.85518 94.9416 8.66993 93.5909 10.0833V0.5H88.481V26.5447H93.5909V24.6947C94.9145 26.0856 96.7334 26.9003 98.8854 26.8958H98.917H98.9305C101.528 26.8958 103.725 25.9326 105.229 24.231C106.733 22.5295 107.53 20.1528 107.53 17.3845V17.3755C107.53 14.6072 106.742 12.226 105.256 10.5245ZM101.317 20.9991C100.646 21.7013 99.5923 22.1019 97.9355 22.1019C96.2607 22.1019 95.1982 21.6968 94.5228 20.9946C93.8475 20.2924 93.4513 19.14 93.4513 17.371C93.4513 15.602 93.8475 14.4496 94.5228 13.7474C95.1982 13.0452 96.2607 12.6446 97.9355 12.6401C99.5923 12.6401 100.646 13.0407 101.317 13.7474C101.987 14.4496 102.388 15.602 102.388 17.371C102.388 19.14 101.987 20.2924 101.317 20.9946V20.9991Z" fill="white"/>
<path d="M115.633 21.4402V0.5H110.523V22.2054C110.523 24.6002 112.468 26.5447 114.864 26.5447H118.713V21.4357H115.633V21.4402Z" fill="white"/>
<path d="M39.2138 8.2016C37.6245 8.2016 36.2649 9.14238 35.6391 10.4928C34.2659 8.81378 32.2444 7.85049 29.8538 7.855H29.8178H29.8043C27.2561 7.855 25.0905 8.82278 23.6138 10.5243C22.1326 12.2258 21.3447 14.607 21.3447 17.3753C21.3447 20.1481 22.1416 22.5294 23.6498 24.2309C25.1535 25.9324 27.3506 26.9002 29.9483 26.8956H29.9618H29.9934C32.1184 26.8956 33.9282 26.1034 35.2519 24.735V26.5445H40.3618V13.3106H42.2392V8.2016H39.2183H39.2138ZM34.3514 20.9944C33.6761 21.6966 32.6136 22.0972 30.9388 22.1017C29.264 22.1017 28.2105 21.7011 27.5487 20.9989C26.8824 20.3012 26.4907 19.1443 26.4907 17.3753C26.4907 15.6018 26.8824 14.4495 27.5487 13.7517H27.5532C28.2195 13.0495 29.2685 12.6534 30.9433 12.6489C32.6181 12.6489 33.6806 13.054 34.3559 13.7562C35.0313 14.4585 35.4275 15.6108 35.4275 17.3798C35.4275 19.1488 35.0313 20.3012 34.3559 21.0034L34.3514 20.9944Z" fill="white"/>
<path d="M82.3085 8.2016C80.7192 8.2016 79.3596 9.14238 78.7338 10.4928C77.3606 8.81378 75.3392 7.85049 72.9485 7.855H72.9125H72.899C70.3508 7.855 68.1852 8.82278 66.7085 10.5243C65.2273 12.2258 64.4395 14.6025 64.4395 17.3708V17.3798C64.4395 20.1481 65.2363 22.5294 66.7446 24.2309C68.2483 25.9324 70.4453 26.9002 73.0431 26.8956H73.0566H73.0881C75.2131 26.8956 77.023 26.1034 78.3466 24.735V26.5445H83.4565V13.3106H85.3339V8.2016H82.313H82.3085ZM77.4462 20.9944C76.7709 21.6966 75.7083 22.0972 74.0335 22.1017C72.3587 22.1017 71.3052 21.7011 70.6434 20.9989C69.9771 20.3012 69.5854 19.1443 69.5854 17.3753C69.5854 15.6018 69.9771 14.4495 70.6434 13.7517C71.3097 13.0495 72.3587 12.6534 74.0335 12.6489C75.7083 12.6489 76.7709 13.054 77.4462 13.7562C78.1215 14.4585 78.5177 15.6108 78.5177 17.3798C78.5177 19.1488 78.1215 20.3012 77.4462 21.0034V20.9944Z" fill="white"/>
<path d="M135.443 21.4355H126.2C124.89 21.4355 123.656 22.3268 123.472 23.6187C123.251 25.1942 124.467 26.5446 126.002 26.5446H135.245C136.555 26.5446 137.789 25.6533 137.973 24.3614C138.194 22.7859 136.978 21.4355 135.443 21.4355Z" fill="url(#paint0_linear_0_1610)"/>
</g>
<defs>
<linearGradient id="paint0_linear_0_1610" x1="140.076" y1="23.9923" x2="126.02" y2="23.9923" gradientUnits="userSpaceOnUse">
<stop stop-color="#7CDDAE" stop-opacity="0"/>
<stop offset="0.41" stop-color="#7CDDAE" stop-opacity="0.44"/>
<stop offset="0.82" stop-color="#7CDDAE" stop-opacity="0.84"/>
<stop offset="1" stop-color="#7CDDAE"/>
</linearGradient>
<clipPath id="clip0_0_1610">
<rect width="138" height="32" fill="white" transform="translate(0 0.5)"/>
</clipPath>
</defs>
</svg>
