<svg width="72" height="72" viewBox="0 0 72 72" fill="none" xmlns="http://www.w3.org/2000/svg">
<path opacity="0.4" fill-rule="evenodd" clip-rule="evenodd" d="M39.6144 46.98C35.1504 46.98 32.0112 43.62 32.0112 38.76V29.28C32.0112 24.45 35.1504 21.06 39.6144 21.06H47.3616V19.86C47.3616 13.05 42.0336 7.5 35.496 7.5H22.2191C15.6815 7.5 10.3535 13.05 10.3535 19.86V52.14C10.3535 58.98 15.6815 64.5 22.2191 64.5H35.496C42.0336 64.5 47.3616 58.98 47.3616 52.14V46.98H39.6144Z" fill="white"/>
<path fill-rule="evenodd" clip-rule="evenodd" d="M28.6728 49.4297C27.1867 49.4297 25.98 50.6957 25.98 52.2467C25.98 53.8007 27.1867 55.0667 28.6728 55.0667C30.159 55.0667 31.3686 53.8007 31.3686 52.2467C31.3686 50.6957 30.159 49.4297 28.6728 49.4297Z" fill="white"/>
<path fill-rule="evenodd" clip-rule="evenodd" d="M39.6144 21.0586H54.0144C58.5072 21.0586 61.6464 24.4486 61.6464 29.2786V38.7585C61.6464 43.6185 58.5072 46.9785 54.0144 46.9785H39.6144C35.1504 46.9785 32.0112 43.6185 32.0112 38.7585V29.2786C32.0112 24.4486 35.1504 21.0586 39.6144 21.0586ZM39.6144 25.5586H54.0144C56.5488 25.5586 57.1536 27.4186 57.2688 28.6486H36.3888C36.504 27.4186 37.1088 25.5586 39.6144 25.5586ZM57.3264 38.7585C57.3264 39.8985 57.0096 42.4785 54.0144 42.4785H39.6144C36.648 42.4785 36.3312 39.8985 36.3312 38.7585V33.1485H57.3264V38.7585Z" fill="white"/>
</svg>
