<svg width="82" height="57" viewBox="0 0 82 57" fill="none" xmlns="http://www.w3.org/2000/svg">
<path d="M30.5212 44.6288C29.8801 46.6959 28.6783 47.7166 26.8469 47.7281C19.3116 47.7798 11.7733 47.7999 4.23791 47.7281C1.83441 47.705 0.299157 45.98 0.247407 43.427C0.175532 39.9713 0.221525 36.5127 0.221525 33.0569C0.221525 29.4488 0.198533 25.8435 0.230158 22.2354C0.258908 18.9493 1.63891 17.4715 4.84741 17.4514C11.9314 17.4054 19.0154 17.4083 26.0994 17.4514C29.0636 17.4686 30.6103 18.8113 30.6678 21.5943C30.7713 26.7032 30.7023 31.8149 30.6879 36.9238C30.6879 37.2745 30.5356 37.6282 30.3976 38.2233C29.3137 38.2233 28.2787 38.2233 27.2437 38.2233C23.3251 38.2233 19.4064 38.2463 15.4878 38.2118C13.159 38.1917 12.239 37.6885 10.6607 35.5582C16.3445 35.5208 21.7639 35.4834 27.0942 35.446C28.5058 27.7612 23.7189 22.4108 18.6417 21.1027C12.1585 19.4294 5.96292 22.9657 4.11717 29.2907C2.35767 35.3138 5.8019 41.8774 11.9544 43.8353C13.7053 44.393 15.6632 44.4189 17.529 44.4707C20.9934 44.5655 24.4607 44.4908 27.9279 44.5052C28.7243 44.508 29.5207 44.5799 30.5269 44.6317L30.5212 44.6288Z" fill="white"/>
<path d="M39.4732 44.0421V56.4995H34.4304C34.3758 55.6887 34.2809 54.9642 34.2809 54.2369C34.2694 46.9516 34.4017 39.6664 34.2292 32.384C34.1142 27.5856 37.82 22.1461 43.5787 21.3152C49.6765 20.4355 54.863 23.7561 56.4673 29.4141C58.5488 36.7597 53.1438 43.9616 45.4762 44.0392C43.616 44.0594 41.753 44.0392 39.4732 44.0392V44.0421ZM39.6485 38.5652C42.4373 38.7636 45.1312 39.1086 47.7417 38.1829C50.5534 37.1824 52.0427 34.2844 51.4964 31.2656C51.0249 28.6465 48.4489 26.4845 45.7292 26.427C42.8082 26.3637 40.1172 28.267 39.7147 31.1621C39.3898 33.4966 39.6485 35.9145 39.6485 38.5681V38.5652Z" fill="white"/>
<path d="M54.7821 44.0079C56.0902 42.3117 57.3178 40.7218 58.7553 38.8588C59.2498 38.8301 60.0635 38.7467 60.8771 38.7438C64.9481 38.7294 69.022 38.7467 73.093 38.7266C74.3838 38.7208 75.7265 38.7208 76.1922 37.0648C75.991 35.4117 74.7892 35.127 73.415 35.1127C71.0776 35.0897 68.7373 35.1644 66.4028 35.0609C63.1282 34.9172 60.4803 32.4648 60.0778 29.3512C59.6149 25.7632 61.34 22.7272 64.491 21.5944C64.7727 21.4938 65.0631 21.3357 65.3506 21.3357C69.4762 21.3184 73.6018 21.3242 77.9172 21.3242V25.9357C77.1266 26.0219 76.3389 26.1685 75.5482 26.1829C73.3632 26.2174 71.1753 26.1829 68.9874 26.203C68.3118 26.2088 67.6276 26.2347 66.9635 26.3554C65.9687 26.5337 65.2816 27.1115 65.3362 28.1897C65.3908 29.2707 66.1383 29.7738 67.1475 29.8284C68.2745 29.8888 69.4072 29.86 70.54 29.8658C71.9717 29.8715 73.4092 29.8083 74.8381 29.8888C78.5411 30.0987 81.4592 33.1692 81.5253 36.8521C81.5886 40.4084 78.8343 43.8527 75.2837 43.9562C68.4613 44.1546 61.6303 44.0137 54.7734 44.0137L54.7821 44.0079Z" fill="white"/>
<path d="M6.08124 13.1646C5.07499 8.51289 6.47513 4.59714 9.86188 2.31726C13.4355 -0.0862386 17.4576 -0.126489 21.0571 2.31726C24.9125 4.93064 25.6284 8.71414 24.9499 13.1618H20.6345C20.6345 12.1181 20.6863 11.1694 20.6259 10.2264C20.4275 7.23927 18.4179 5.24689 15.6061 5.19802C12.7053 5.14627 10.7474 6.95752 10.4369 10.005C10.3334 11.0256 10.2644 12.0491 10.1724 13.1646H6.087H6.08124Z" fill="white"/>
<path d="M10.5078 29.5204C13.1816 25.642 17.4452 25.5931 20.5157 29.4284C18.6843 29.4629 17.1088 29.5031 15.5333 29.5175C13.9664 29.5319 12.4024 29.5204 10.5078 29.5204Z" fill="white"/>
</svg>
