<svg width="108" height="57" viewBox="0 0 108 57" fill="none" xmlns="http://www.w3.org/2000/svg">
<path d="M9.99224 12.027C9.9722 11.3721 9.65476 11.0346 9.05667 11.0145H5.83234C5.06384 11.0513 4.66956 11.4823 4.65285 12.2709V18.0613C4.6729 18.8666 5.10392 19.2809 5.94593 19.3177H8.8896C9.19032 19.3177 9.45096 19.204 9.65812 18.9802C9.86528 18.8131 9.97552 18.5859 9.97552 18.3052L9.99559 12.027H9.99224ZM0.526367 11.2017C0.546415 9.75822 0.863832 8.65226 1.50202 7.90381C1.81944 7.58639 2.23376 7.32242 2.7383 7.09856C3.26288 6.87469 3.75071 6.76108 4.23853 6.76108H10.1426C12.7488 6.78113 14.0786 8.20452 14.1154 11.0346V19.7487C14.0953 20.7611 13.7044 21.6231 12.9359 22.3549C12.1875 23.1234 11.2853 23.5177 10.2362 23.5344H4.64953V29.8126H0.526367V11.2017ZM21.5932 18.4556C21.5932 18.6995 21.7068 18.8866 21.9307 19.037C22.1178 19.2041 22.3817 19.301 22.6791 19.301H25.8466C26.5583 19.301 26.9326 19.0203 26.9526 18.4589V17.2795C26.9526 16.6246 26.5784 16.3038 25.8099 16.3038H22.6624C22.2514 16.3038 21.9674 16.3773 21.8003 16.511C21.65 16.6613 21.5765 16.962 21.5765 17.4098L21.5965 18.4589L21.5932 18.4556ZM26.9727 11.9134C26.9927 11.2752 26.6152 10.9778 25.8667 10.9945H17.5469V6.75775H26.9192C29.6557 6.7945 31.0424 8.12433 31.0791 10.7305V19.615C31.0591 20.741 30.7049 21.6566 30.0466 22.4083C29.3517 23.1768 28.4529 23.5511 27.3469 23.5511H21.6868C18.9302 23.531 17.5269 22.278 17.4901 19.7654V16.3372C17.5101 13.7143 18.84 12.3811 21.4996 12.3444H26.9894L26.9693 11.9134M42.6734 25.5759C42.9908 25.5558 43.2915 25.4456 43.5154 25.2184C43.7392 25.0112 43.8529 24.7873 43.8529 24.5434V23.531H38.5669C37.8719 23.531 37.3307 23.4375 36.9163 23.2671C36.4853 23.1167 36.0543 22.816 35.6032 22.385C35.1922 21.9339 34.8915 21.4661 34.7044 20.9783C34.5173 20.5272 34.4237 19.9659 34.4237 19.2742V6.75441H38.5669V17.9444C38.5669 18.8432 38.9412 19.2943 39.6729 19.2943H42.5965C42.954 19.2943 43.2514 19.1807 43.4953 18.9568C43.7392 18.7496 43.8529 18.5258 43.8529 18.2451V6.75775H47.956V25.2551C47.9359 26.6217 47.5817 27.7277 46.9068 28.553C46.2118 29.3783 45.2763 29.8093 44.0767 29.826H34.4237V25.5725H42.67M51.197 19.2943H58.5612C59.2362 19.2742 59.5937 18.9935 59.6104 18.489V18.1148C59.6104 18.0012 59.5736 17.8909 59.5168 17.7573C59.3498 17.4398 59.1426 17.2694 58.9187 17.2694H55.2467C54.1607 17.2494 53.2419 16.8752 52.4533 16.1434C51.6648 15.4685 51.2739 14.6632 51.2338 13.6876V10.52C51.2705 8.04748 52.6204 6.79116 55.2634 6.75441H63.8104V11.0079H56.5765C55.7345 11.0079 55.3035 11.2718 55.3035 11.7964V12.2074C55.3035 12.752 55.7345 13.0126 56.6166 13.0126H60.2519C61.2276 13.0327 62.0495 13.4069 62.7445 14.1387C63.4395 14.8704 63.7937 15.7324 63.8304 16.7449V19.8389C63.8104 20.7009 63.3994 21.583 62.6309 22.4451C62.2567 22.8761 61.8624 23.1568 61.4882 23.3272C61.0939 23.4776 60.5526 23.5511 59.8576 23.5511H51.2171L51.197 19.2976M70.8939 18.4556C70.8939 18.6995 71.0075 18.8866 71.2314 19.037C71.4185 19.2041 71.6624 19.301 71.9798 19.301H75.1674C75.8791 19.301 76.2533 19.0203 76.2734 18.4589V17.2795C76.2734 16.6246 75.8991 16.3038 75.1307 16.3038H71.9832C71.5722 16.3038 71.2882 16.3773 71.1211 16.511C70.9707 16.6613 70.8972 16.962 70.8972 17.4098V18.4589L70.8939 18.4556ZM76.2734 11.9134C76.2934 11.2752 75.9159 10.9778 75.1474 10.9945H66.8276V6.75775H76.1999C78.9364 6.7945 80.323 8.12433 80.3598 10.7305V19.615C80.3397 20.741 79.9856 21.6566 79.3273 22.4083C78.6323 23.1768 77.7335 23.5511 76.6276 23.5511H70.9474C68.1908 23.531 66.7875 22.278 66.7507 19.7654V16.3372C66.7708 13.7143 68.1006 12.3811 70.7603 12.3444H76.27V11.9134M83.7278 4.34199C83.7478 3.19927 84.1789 2.28042 85.0008 1.58543C85.8061 0.890443 86.8552 0.516218 88.1684 0.499512H90.7913V4.60261H89.1975C88.3154 4.62266 87.8844 5.03364 87.8677 5.85894V6.75775H90.7913V11.0112H87.8677V23.5511H83.7245V4.34199M102.543 11.8398V11.7463C102.543 11.5224 102.449 11.3353 102.279 11.2017C102.092 11.0713 101.848 10.9945 101.567 10.9945H98.6801C98.3058 10.9945 98.0051 11.1081 97.7813 11.3119C97.5006 11.499 97.3502 11.763 97.3502 12.0804V13.7845L102.543 11.8365V11.8398ZM97.4271 17.8575V18.1215C97.4271 18.4589 97.5206 18.7396 97.691 18.9267C97.8214 19.1706 97.9918 19.301 98.2357 19.301H106.726V23.5544H97.691C96.8657 23.5544 96.2276 23.4809 95.7798 23.3305C95.292 23.1635 94.8443 22.8995 94.45 22.5253C93.9989 22.0742 93.6815 21.6265 93.5312 21.1387C93.3641 20.6508 93.2672 19.9959 93.2672 19.1907L93.2304 10.6804C93.2672 8.11431 94.617 6.80118 97.26 6.76443H102.847C105.413 6.80118 106.726 8.17112 106.763 10.8308V14.1854L97.4304 17.8575M43.0209 56.4962C42.229 56.4962 41.4839 56.4227 40.8123 56.279C40.1173 56.1587 39.419 55.848 38.724 55.2933C38.0023 54.6685 37.4977 53.9468 37.2104 53.1549C36.923 52.3864 36.7794 51.4976 36.7794 50.5387V40.3811C36.756 39.5659 36.8261 38.8208 37.0199 38.1959C37.187 37.5711 37.5712 36.9463 38.1493 36.3482C38.7975 35.7234 39.4457 35.2924 40.144 35.0752C40.8156 34.9081 41.5607 34.8112 42.4027 34.8112H50.5187V36.0842H42.5932C41.1999 36.0842 40.0939 36.3716 39.2786 36.9496C38.4634 37.5745 38.029 38.6537 38.029 40.1907V50.3482C38.029 51.0699 38.1493 51.7649 38.3665 52.4365C38.5836 53.0847 38.9679 53.6861 39.4958 54.1907C40.0739 54.6217 40.6486 54.9124 41.1999 55.006C41.7779 55.1262 42.3994 55.1998 43.0743 55.1998H50.639V56.4728H43.0242M71.4118 43.3114H60.7731C59.5001 43.3348 58.4911 43.7425 57.7727 44.4876C57.0276 45.2561 56.6667 46.3119 56.6667 47.6585V50.8995C56.6667 51.5243 56.7402 52.099 56.8605 52.6303C57.0042 53.1816 57.3182 53.6628 57.8462 54.0704C58.7583 54.8389 59.7908 55.1998 60.8968 55.1998H67.3822C70.072 55.1764 71.4419 53.7597 71.4419 50.9262L71.4185 43.3114H71.4118ZM72.6849 50.6355C72.6849 51.4508 72.6113 52.1726 72.5178 52.7974C72.3507 53.4924 71.9899 54.1439 71.4619 54.7654C70.356 55.9415 68.9626 56.5196 67.3321 56.4694H60.9903C59.3331 56.4694 58.0132 55.9883 56.9808 55.006C55.9249 54.0437 55.397 52.7005 55.397 50.9697V47.7019C55.4438 44.0031 57.2949 42.1052 60.9202 42.0351H71.4619V40.595C71.4619 39.4188 71.1245 38.3864 70.4295 37.4976C69.9985 36.9196 69.4939 36.5353 68.9159 36.3449C68.3378 36.2012 67.6662 36.1043 66.9478 36.1043H55.4438V34.8313H66.3464C67.3555 34.8313 68.2443 34.9048 69.0595 35.0484C69.4672 35.1219 69.8514 35.289 70.2123 35.5296C70.5965 35.7468 70.934 36.0809 71.2448 36.5153C72.2304 37.7883 72.7082 39.2284 72.6849 40.8623V50.6355ZM84.5965 36.1043C81.6428 36.1511 80.176 37.7616 80.2495 40.9325V56.4728H78.9765V40.9592C78.903 36.8761 80.851 34.8346 84.8137 34.8346H86.2304V36.1076H84.5965M106.044 36.1076H96.0037C95.282 36.1076 94.6338 36.1811 94.0591 36.3482C93.4576 36.4919 92.8595 36.8527 92.3049 37.4542C91.777 38.0055 91.4395 38.5601 91.2958 39.0881C91.102 39.6394 91.0319 40.2876 91.0553 41.0561V50.9764C91.0553 52.6336 91.5364 53.7396 92.4953 54.3377C92.9765 54.6251 93.5044 54.8188 94.0791 54.9625C94.6572 55.1062 95.3288 55.2031 96.0237 55.2031H100.418C102.051 55.2031 103.395 54.8189 104.427 54.0737C105.46 53.352 105.987 52.1291 106.038 50.3749V36.1076H106.044ZM107.317 50.4685C107.197 54.5749 105.035 56.5931 100.808 56.4962H96.1006C95.1149 56.4962 94.2261 56.3993 93.4342 56.2556C92.619 56.0384 91.8505 55.5606 91.1054 54.7921C90.5541 54.0971 90.1932 53.3988 90.0495 52.6771C89.8557 51.9554 89.7622 51.1635 89.809 50.2981V41.0527C89.8557 36.8995 91.9708 34.8079 96.1006 34.858H106.068V27.8212H107.341V50.4685" fill="white"/>
<path d="M10.6041 38.7476C10.9249 38.5973 11.2623 38.4837 11.5798 38.4269C12.1812 35.5734 14.7172 33.4316 17.7378 33.4316C20.7583 33.4316 23.2977 35.5734 23.8958 38.4269C24.8347 38.5973 25.6031 38.9715 26.1879 39.5362C26.2079 38.9915 26.1879 38.467 26.1311 37.9591C25.7569 33.6388 22.1316 30.2607 17.7177 30.2607C13.3039 30.2607 9.47474 33.866 9.28763 38.3533C9.26758 38.7476 9.25087 39.1419 9.26758 39.5729C9.64181 39.2521 10.0762 38.9715 10.6008 38.7476" fill="white"/>
<path d="M22.6589 39.3848H12.5382C12.0504 39.3848 11.5425 39.4984 11.0346 39.7222C10.5267 39.9461 10.1158 40.2101 9.79499 40.5308C9.17685 41.2826 8.83604 42.3886 8.81934 43.8354V51.7408C8.83938 53.1876 9.1568 54.2936 9.79499 55.0454C10.1325 55.3661 10.5267 55.6268 11.0346 55.854C11.5592 56.0778 12.0671 56.1914 12.5382 56.1914H22.6589C25.2685 56.1714 26.6017 54.728 26.6384 51.8912V43.665C26.6017 40.8282 25.2685 39.4015 22.6589 39.3848Z" fill="white"/>
</svg>
