<svg width="173" height="57" viewBox="0 0 173 57" fill="none" xmlns="http://www.w3.org/2000/svg">
<path d="M44.7143 36.2222H35.5617L36.1878 32.8235L50.4334 32.7241L49.9117 35.924L37.9517 46.8256H47.9341L47.4124 50.2243H32.645L33.2711 46.7213L44.7093 36.2172L44.7143 36.2222Z" fill="white"/>
<path d="M20.5908 27.4149C20.2777 27.1167 19.8604 26.8136 19.3437 26.6149C18.8219 26.4161 18.2008 26.3168 17.679 26.2124C16.9486 26.113 16.3276 26.0137 15.8059 26.0137H4.1589L0 50.1174H3.84586L5.40608 41.2133H12.8941C12.8941 41.2133 15.8058 41.3127 17.8878 40.3139C19.9697 39.2158 20.4864 36.8109 20.4864 36.8109C20.4864 36.8109 20.6951 35.9116 20.9038 34.8085C21.1125 33.606 21.3212 32.2098 21.4256 31.4098C21.4256 31.1117 21.5299 30.9079 21.5299 30.9079C21.5299 30.9079 21.6343 30.7092 21.6343 30.3067C21.6343 29.8049 21.5299 29.0049 21.1125 28.2049C21.0082 27.9068 20.7995 27.7031 20.5908 27.4049V27.4149ZM17.5747 31.7179C17.5747 31.7179 17.2617 33.7203 16.7449 36.0209C16.5362 36.9202 15.9151 37.3227 15.0804 37.5215C13.7288 37.8196 12.273 37.7202 12.273 37.7202H6.03216L7.38366 29.7204H14.0369C14.663 29.7204 15.4928 29.7204 16.1188 29.8198C16.7449 29.9192 17.1573 30.0185 17.2617 30.2223C17.4704 30.421 17.5747 30.7241 17.5747 31.0222V31.7228V31.7179Z" fill="white"/>
<path d="M69.7749 26.0137H73.417L69.2581 50.2218H65.5166L69.7798 26.0137H69.7749Z" fill="white"/>
<path d="M107.108 50.126H102.636L101.389 38.0219L95.8785 50.126L91.511 50.2254L89.6377 32.8196L93.2798 32.7202L94.527 45.023L100.037 32.7202H104.405L105.757 45.023L111.267 32.7202H115.008L107.103 50.126H107.108Z" fill="white"/>
<path d="M62.8116 32.9191C61.7731 32.6209 59.8998 32.5166 58.444 32.5166C56.9881 32.5166 56.2577 32.616 55.741 32.7154C55.741 32.7154 53.1423 33.1178 51.5821 34.9165C50.0218 36.7152 49.6044 40.6158 49.6044 40.6158C49.6044 40.6158 48.6703 44.9188 48.9783 46.4194C49.2914 47.8206 49.7088 49.2218 51.3684 49.818C53.0329 50.4193 54.4888 50.4193 54.4888 50.4193C54.4888 50.4193 57.5048 50.618 59.7905 50.1211C62.0762 49.6193 63.224 48.0193 63.224 48.0193C63.224 48.0193 63.7457 47.3187 64.1581 46.5187C64.5755 45.7188 64.6799 45.2169 64.6799 45.1175L64.8885 44.2182H61.0427C61.0427 44.2182 60.834 46.7175 58.757 46.9212C56.6751 47.12 55.5323 47.0206 55.1149 47.0206C54.6975 47.0206 52.5162 47.12 52.6205 45.3213V45.2219C52.7249 43.1201 52.9336 42.6232 52.9336 42.6232H65.1022L65.6239 39.7214C66.3543 36.4221 65.937 33.9178 62.8166 32.9191H62.8116ZM61.9818 39.2195H53.664L53.977 37.9177C53.977 37.9177 54.2901 36.919 54.8068 36.5165C55.4329 36.114 56.1583 36.0147 56.7844 35.9153C57.5148 35.8159 59.2787 35.7165 60.8389 36.0147C61.3606 36.114 61.7731 36.4171 61.9818 36.8146C62.2948 37.8134 61.9818 39.2146 61.9818 39.2146V39.2195Z" fill="white"/>
<path d="M85.7877 32.9191C84.7492 32.6209 82.8759 32.5166 81.42 32.5166C79.9642 32.5166 79.2338 32.616 78.717 32.7154C78.717 32.7154 76.1183 33.1178 74.5581 34.9165C72.9979 36.7152 72.5805 40.6158 72.5805 40.6158C72.5805 40.6158 71.6463 44.9188 71.9544 46.4194C72.2675 47.8206 72.6849 49.2218 74.3444 49.818C76.009 50.4193 77.4649 50.4193 77.4649 50.4193C77.4649 50.4193 80.4809 50.618 82.7666 50.1211C85.0522 49.6193 86.2001 48.0193 86.2001 48.0193C86.2001 48.0193 86.7218 47.3187 87.1342 46.5187C87.5516 45.7188 87.6559 45.2169 87.6559 45.1175L87.8646 44.2182H84.0187C84.0187 44.2182 83.8101 46.7175 81.7331 46.9212C79.6511 47.12 78.5083 47.0206 78.091 47.0206C77.6736 47.0206 75.4923 47.12 75.5966 45.3213V45.2219C75.7009 43.1201 75.9096 42.6232 75.9096 42.6232H88.0783L88.6 39.7214C89.3304 36.4221 88.9131 33.9178 85.7926 32.9191H85.7877ZM84.9578 39.2195H76.64L76.9531 37.9177C76.9531 37.9177 77.2661 36.919 77.7829 36.5165C78.409 36.114 79.1344 36.0147 79.7605 35.9153C80.4909 35.8159 82.2548 35.7165 83.815 36.0147C84.3367 36.114 84.7492 36.4171 84.9578 36.8146C85.2709 37.8134 84.9578 39.2146 84.9578 39.2146V39.2195Z" fill="white"/>
<path d="M119.276 32.8185L121.666 45.5238L128.423 32.8185H132.269L122.496 51.0243C122.496 51.0243 120.727 54.3236 119.584 55.1236C118.441 55.9235 117.815 56.326 116.881 56.4254C115.947 56.5248 115.634 56.5248 114.799 56.4254L113.865 56.2266L114.386 52.9274C114.386 52.9274 115.947 53.2255 116.776 52.828C117.711 52.5298 118.441 51.0293 118.441 51.0293L118.858 50.3286L115.321 32.7241L119.271 32.8235L119.276 32.8185Z" fill="white"/>
<path d="M133.627 34.5153H137.577L137.786 33.0147C137.786 33.0147 138.203 30.416 139.137 29.8148C139.45 29.616 139.967 29.5167 140.489 29.4123C141.527 29.2136 142.774 29.2135 143.922 29.2135C145.587 29.3129 146.208 29.3129 147.872 29.5117C149.537 29.7104 149.12 31.211 149.12 31.211L148.807 33.5116C148.807 33.5116 148.702 34.5103 148.285 35.2109C147.972 35.8121 147.038 36.2097 146.516 36.309C145.269 36.7115 140.797 37.8096 140.797 37.8096L137.363 38.8084C137.363 38.8084 135.177 39.4096 134.034 40.7064C132.787 42.0083 132.37 43.4095 132.161 44.2095C131.952 45.0094 131.123 50.2118 131.123 50.2118H149.944L150.571 46.6094H135.699L136.012 45.1088C136.012 45.1088 136.221 43.6082 136.842 43.1064C137.05 42.9076 137.155 42.7039 138.298 42.3064C139.028 42.1076 141.418 41.407 141.418 41.407L147.033 39.9065C147.033 39.9065 150.049 39.1065 151.296 37.5065C152.543 35.9065 152.961 32.806 152.961 32.806C152.961 32.806 153.274 29.8048 153.065 28.9055C152.856 28.0061 151.922 26.8037 150.779 26.4062C149.636 25.9043 148.494 25.6062 145.06 25.7056C141.627 25.8049 139.962 25.9043 138.302 26.5055C136.638 27.1068 135.599 28.2049 134.973 29.8048C134.039 31.3054 133.622 34.5053 133.622 34.5053L133.627 34.5153Z" fill="white"/>
<path d="M169.089 41.2183L171.688 26.0137H167.007L152.448 41.0195L151.822 44.8207H164.508L163.573 50.1224H167.524L168.458 44.8207H172.1L172.726 41.2183H169.084H169.089ZM165.139 41.2183H156.925L166.908 31.0173L165.139 41.2183Z" fill="white"/>
<path d="M28.8057 28.0171H40.7657C40.7657 28.0171 43.4687 25.9153 45.3419 24.6184C47.2152 23.3166 50.748 21.1154 50.748 21.1154L43.9904 18.1143C43.9904 18.1143 38.2713 21.5129 35.8813 23.1179C33.4913 24.6185 28.8106 28.0171 28.8106 28.0171H28.8057Z" fill="white"/>
<path d="M54.488 19.0129L48.9775 15.4105C48.9775 15.4105 53.9712 12.7074 60.7288 10.1087C67.3821 7.51005 70.9199 6.50635 70.9199 6.50635L72.0627 11.6093C72.0627 11.6093 65.6132 13.7111 61.976 15.3111C58.1301 16.9111 54.488 19.0129 54.488 19.0129Z" fill="white"/>
<path d="M76.1216 10.4138L75.1875 5.21147C75.1875 5.21147 82.0494 3.41276 88.2903 2.30968C94.5311 1.21157 102.849 0.610352 102.849 0.610352L100.146 8.7145C100.146 8.7145 92.8666 7.71576 86.0046 8.61512C80.5986 9.31572 76.1266 10.4138 76.1266 10.4138H76.1216Z" fill="white"/>
<path d="M104.511 9.41508L109.191 0.51094C109.191 0.51094 119.382 0.312183 128.118 1.60905C136.853 2.91088 144.863 4.90836 144.654 5.00773L122.503 16.2124C122.503 16.2124 117.305 13.0125 110.856 11.1094C107.114 10.0113 104.511 9.4101 104.511 9.4101V9.41508Z" fill="white"/>
<path d="M126.348 18.6164L131.237 22.2188H171.276C171.276 22.2188 171.172 21.0163 170.133 19.2176C169.507 18.1195 168.26 16.917 167.013 15.7146C166.596 15.3121 164.727 13.9159 163.371 13.0115C159.833 10.8103 157.86 9.911 154.218 8.31104L126.348 18.6114V18.6164Z" fill="white"/>
<path d="M31.402 32.7195C29.9461 32.7195 28.4903 33.3207 27.2431 33.9219L27.4518 32.7195H23.5016L20.2769 50.0259H24.227L25.9959 40.4212C26.4133 38.5231 27.8692 36.0188 30.7809 36.0188H32.8629L33.4889 32.6201H31.407V32.7195H31.402Z" fill="white"/>
</svg>
