<svg width="65" height="57" viewBox="0 0 65 57" fill="none" xmlns="http://www.w3.org/2000/svg">
<g clip-path="url(#clip0_0_1686)">
<path d="M25.8118 25.6268C25.5965 25.3615 25.311 25.1215 24.9553 24.9774C24.5996 24.8334 24.1691 24.7603 23.6457 24.7603H22.123V30.9103H24.0037V30.8852C24.3141 30.8852 24.5996 30.8372 24.9077 30.7411C25.1932 30.6451 25.4561 30.4759 25.669 30.2359C25.8843 29.9958 26.0746 29.7078 26.2174 29.3237C26.3601 28.9396 26.4326 28.5075 26.4326 27.9542C26.4326 27.4741 26.385 27.0168 26.2899 26.6327C26.1947 26.2486 26.027 25.8874 25.814 25.6245" fill="white"/>
<path d="M43.3109 25.3418L42.0488 28.9221H44.5503L43.3358 25.3418H43.3109Z" fill="white"/>
<path d="M49.3841 32.6883V22.935H51.5026V30.8867H56.2178V32.6883H49.3841ZM45.8358 32.6883L45.0972 30.5255H41.4787L40.7174 32.6883H38.5739L42.2174 22.935H44.431L48.0495 32.6883H45.8358ZM37.2643 32.6631H29.9299V22.9099H37.1442V24.7366H32.0484V26.8263H36.7386V28.4838H32.0484V30.8616H37.262V32.6631H37.2643ZM28.2872 29.6841C28.0968 30.2854 27.834 30.8135 27.4783 31.2457C27.1203 31.6778 26.6694 32.0138 26.1211 32.279C25.5727 32.5191 24.9315 32.6631 24.1928 32.6631H20.026V22.9099H24.1453V22.935C24.7638 22.935 25.3371 23.0311 25.8831 23.2231C26.4315 23.4152 26.8824 23.7284 27.2879 24.1125C27.6686 24.5217 27.979 25.0247 28.2169 25.6031C28.4322 26.2044 28.55 26.8994 28.55 27.7179C28.55 28.4381 28.4548 29.0874 28.2872 29.6887M35.5491 6.54932H21.0026C19.3123 6.54932 17.9551 7.94394 17.9551 9.62436V50.4183H35.5513C51.5276 50.4183 58.4564 41.3121 58.4564 28.4358C58.4564 15.5595 51.5276 6.54932 35.5513 6.54932" fill="white"/>
<path d="M10.0011 23.3252C7.54274 23.3252 5.54883 25.3371 5.54883 27.8177C5.54883 30.2983 7.54274 32.3103 10.0011 32.3103C12.4595 32.3103 14.4535 30.2983 14.4535 27.8177C14.4535 25.3371 12.4595 23.3252 10.0011 23.3252Z" fill="white"/>
<path d="M10.0007 34.9077C8.12008 34.9077 6.62012 36.4441 6.62012 38.3188V43.6276C6.62012 47.3748 9.62005 50.4269 13.3586 50.4269H13.3836V38.3188C13.3836 36.4212 11.8609 34.9077 10.003 34.9077" fill="white"/>
<path d="M33.5256 54.9631H5.09877C3.40847 54.9631 2.05126 53.5937 2.05126 51.8881V5.11321C2.05126 3.40765 3.40847 2.03817 5.09877 2.03817H33.5279C44.5283 2.03817 63.0037 5.47444 63.0037 28.4401C63.0037 45.546 52.5266 54.9631 33.5279 54.9631M33.5256 0.499512H5.09877C2.57466 0.499512 0.526367 2.5663 0.526367 5.11321V51.8881C0.526367 54.435 2.57466 56.4995 5.09877 56.4995H33.5279C53.5032 56.4995 64.5286 46.5291 64.5286 28.4401C64.5286 18.0124 60.5046 0.499512 33.5279 0.499512" fill="white"/>
<path d="M10.0011 23.3252C7.54274 23.3252 5.54883 25.3371 5.54883 27.8177C5.54883 30.2983 7.54274 32.3103 10.0011 32.3103C12.4595 32.3103 14.4535 30.2983 14.4535 27.8177C14.4535 25.3371 12.4595 23.3252 10.0011 23.3252Z" fill="white"/>
<path d="M10.0007 34.9077C8.12008 34.9077 6.62012 36.4441 6.62012 38.3188V43.6276C6.62012 47.3748 9.62005 50.4269 13.3586 50.4269H13.3836V38.3188C13.3836 36.4212 11.8609 34.9077 10.003 34.9077" fill="white"/>
</g>
<defs>
<clipPath id="clip0_0_1686">
<rect width="64" height="56" fill="white" transform="translate(0.526367 0.499512)"/>
</clipPath>
</defs>
</svg>
