<svg width="185" height="57" viewBox="0 0 185 57" fill="none" xmlns="http://www.w3.org/2000/svg">
<path d="M129.681 12.9231V21.5235H155.584V32.778H129.844V43.4622H158.498V55.5016H112.841V1.51611H157.639V12.9231H129.675H129.681Z" fill="white"/>
<path d="M47.4696 16.6554C42.2743 16.949 37.2034 17.237 31.9968 17.5307C31.8048 16.853 31.6467 16.2432 31.4547 15.6446C29.9921 11.127 24.17 8.86816 19.9969 11.2004C18.636 11.9571 17.8171 13.1147 17.851 14.6733C17.8849 16.2206 18.9522 17.2088 20.2906 17.6549C22.459 18.3777 24.7122 18.8239 26.9088 19.4733C31.0876 20.7156 35.3625 21.7434 39.3888 23.3641C45.7248 25.9109 49.5026 30.6826 49.5365 37.7075C49.5704 44.8623 46.1482 50.1479 39.8744 53.5587C36.537 55.377 32.8834 56.1111 29.1337 56.3483C23.227 56.7267 17.3766 56.5008 11.7239 54.4679C5.34279 52.1752 0.311405 44.738 0.54858 37.7019C5.7269 37.38 10.9221 37.0637 16.1795 36.7362C16.4562 37.843 16.637 38.82 16.9363 39.7574C18.6699 45.0938 25.5422 47.6406 30.3874 44.755C34.2273 42.4679 34.2952 37.8713 30.2971 35.8271C27.914 34.6073 25.2091 33.9466 22.5889 33.2689C18.2802 32.1508 13.9884 31.0214 10.0863 28.8022C5.57437 26.2328 2.63789 22.5622 2.29342 17.1919C1.88684 10.935 5.46704 5.3783 11.7409 2.68467C16.5296 0.629157 21.6232 0.391983 26.7394 0.533159C31.2909 0.657393 35.7351 1.27856 39.8235 3.49219C44.2903 5.90912 47.3962 11.1383 47.4696 16.6498V16.6554Z" fill="white"/>
<path d="M57.9287 55.4727V1.35732H59.6737C68.4322 1.35732 77.1908 1.30085 85.9493 1.39685C88.2251 1.41944 90.5404 1.71308 92.754 2.2439C98.8867 3.71213 102.546 7.65939 103.579 13.8994C104.613 20.1337 103.833 25.9388 99.0956 30.6202C96.3173 33.3647 92.7935 34.6013 89.0156 34.9458C85.5935 35.262 82.1432 35.2338 78.7041 35.3354C77.49 35.3693 76.2703 35.3411 74.819 35.3411V55.4671H57.9344L57.9287 55.4727ZM74.8134 24.7303C77.5635 24.5383 80.0764 24.5214 82.5441 24.16C85.7912 23.6856 87.6151 21.4777 87.5869 18.4678C87.5587 15.3224 85.6613 13.0354 82.3634 12.6965C79.9013 12.4424 77.3941 12.6457 74.8134 12.6457V24.736V24.7303Z" fill="white"/>
<path d="M184.884 55.5967H168.389V32.8957H177.046V37.8481C177.193 37.9272 177.345 38.0062 177.492 38.0853C179.887 35.1432 182.286 32.1955 184.884 29.0049V55.5967Z" fill="white"/>
<path d="M184.911 26.5715C182.303 23.3471 179.937 20.4219 177.249 17.1015V21.4723H168.354V1.50439H184.911V26.5715Z" fill="white"/>
</svg>
