<svg width="91" height="57" viewBox="0 0 91 57" fill="none" xmlns="http://www.w3.org/2000/svg">
<path d="M18.9691 36.6846C18.8059 36.6994 18.6428 36.7291 18.4767 36.7291C12.5027 36.7291 6.52572 36.7232 0.55172 36.738C0.109751 36.738 0 36.6253 0 36.1863C0.0148312 30.4941 0.0148312 24.8019 0 19.1097C0 18.6974 0.0949195 18.5817 0.516125 18.5876C2.69631 18.6143 4.87649 18.6084 7.05667 18.6143C7.33253 18.8397 7.39482 19.1809 7.50754 19.4894C9.53645 24.9799 11.5861 30.4615 13.6121 35.9549C13.7811 36.4147 14.0184 36.5719 14.4901 36.5482C15.2049 36.5126 15.9198 36.5482 16.6346 36.5274C17.2042 36.5215 17.7766 36.5126 18.3462 36.5274C18.5657 36.5274 18.797 36.4948 18.9661 36.6876L18.9691 36.6846Z" fill="white"/>
<path d="M78.8611 0.526696C81.3884 0.520764 83.9126 0.511865 86.4399 0.505932C87.57 0.505932 88.7001 0.511865 89.8303 0.5C90.1061 0.5 90.207 0.57119 90.207 0.861881C90.2011 6.69647 90.2011 12.531 90.1981 18.3686C90.1981 18.4487 90.1625 18.5258 90.1417 18.6059C89.2014 18.6949 88.2611 18.6296 87.3208 18.6445C86.5763 18.6563 85.8318 18.6445 85.0873 18.6474C84.7728 18.6178 84.7788 18.333 84.7076 18.1313C84.2538 16.8291 83.8177 15.521 83.3757 14.2159C82.0706 10.3449 80.715 6.48883 79.4277 2.61196C79.2645 2.12253 79.0539 1.6509 78.9145 1.15554C78.8552 0.950868 78.7603 0.746197 78.8582 0.526696H78.8611Z" fill="white"/>
<path d="M72.3665 0.526404C73.464 0.526404 74.5645 0.526404 75.662 0.526404C75.92 0.648019 75.9734 0.900149 76.0535 1.13448C76.5578 2.59684 77.0502 4.06512 77.5455 5.53044C78.8418 9.35985 80.1736 13.1804 81.4491 17.0157C81.5766 17.3954 81.7487 17.7573 81.8525 18.1429C81.9 18.3149 82.0394 18.5285 81.7487 18.6412C80.6897 18.6412 79.6308 18.6412 78.5748 18.6412C78.2545 18.5878 78.2426 18.3001 78.1655 18.0776C77.7235 16.8051 77.2904 15.5296 76.8633 14.2541C75.5374 10.2972 74.1432 6.36692 72.8381 2.40403C72.6928 1.96206 72.497 1.53789 72.3694 1.08999C72.316 0.903116 72.2122 0.713277 72.3694 0.523438L72.3665 0.526404Z" fill="white"/>
<path d="M81.8556 18.5789C80.4111 14.3283 78.9635 10.0776 77.516 5.82703C76.9702 4.22823 76.4244 2.62646 75.8757 1.02766C75.8164 0.855619 75.7333 0.692476 75.6621 0.526367C76.727 0.526367 77.7919 0.526367 78.8567 0.526367C79.9216 3.66761 80.9835 6.80885 82.0514 9.9501C82.965 12.6345 83.8845 15.319 84.8011 18.0034C84.8634 18.1903 84.899 18.3861 84.9494 18.5789C84.0803 18.7242 83.2052 18.6085 82.3332 18.6412C82.176 18.6471 82.001 18.7005 81.8556 18.5789Z" fill="white"/>
<path d="M66.0751 1.21426C66.9858 0.932468 67.9172 0.778224 68.8664 0.718899C68.9405 0.662541 69.0147 0.668473 69.0918 0.710001C69.4922 1.67699 69.7948 2.67661 70.13 3.66437C71.7377 8.38068 73.3513 13.094 74.959 17.8103C75.0243 18.0002 75.1014 18.1841 75.1192 18.3858C75.1311 18.5074 75.1222 18.6231 74.962 18.6439C73.9653 18.6439 72.9716 18.6439 71.975 18.6439C71.7555 18.6201 71.7466 18.4303 71.6991 18.279C70.4503 14.4793 69.1244 10.7032 67.8371 6.91536C67.2557 5.20385 66.7129 3.47453 66.0781 1.78081C66.0099 1.5969 65.9209 1.4041 66.0722 1.21426H66.0751Z" fill="white"/>
<path d="M16.5476 36.6495C15.717 36.6554 14.8865 36.6584 14.0559 36.6702C13.8246 36.6732 13.7089 36.5872 13.6258 36.3588C12.5491 33.44 11.4575 30.5242 10.3719 27.6054C9.3159 24.7667 8.25992 21.9251 7.20691 19.0864C7.15055 18.9321 7.10902 18.772 7.05859 18.6147C8.02262 18.6147 8.98961 18.6147 9.95364 18.6147C10.3333 19.3029 10.5261 20.0652 10.799 20.792C12.6974 25.8702 14.581 30.9543 16.4675 36.0354C16.5387 36.2312 16.6811 36.424 16.5476 36.6495Z" fill="white"/>
<path d="M66.0763 1.21495C66.1534 1.81413 66.4412 2.34509 66.631 2.90571C67.9272 6.76478 69.2413 10.6209 70.5524 14.474C70.9469 15.6338 71.3473 16.7907 71.7418 17.9505C71.8101 18.1522 71.902 18.3539 71.8694 18.5763C71.2316 18.7187 70.585 18.609 69.9443 18.6386C69.6625 18.6505 69.3807 18.6386 69.0989 18.6386C68.7993 18.6001 68.7726 18.3361 68.7014 18.1284C68.3544 17.1229 68.0044 16.1203 67.6662 15.1147C66.3729 11.2586 65.0233 7.42328 63.7419 3.56125C63.6321 3.22903 63.4809 2.91461 63.383 2.57942C63.3266 2.39255 63.2258 2.20271 63.383 2.01287C64.2521 1.64506 65.1449 1.36623 66.0763 1.20605V1.21495Z" fill="white"/>
<path d="M22.2371 36.3731C21.6854 36.5066 21.1277 36.5867 20.5582 36.5778C19.7989 36.6787 19.7811 36.6727 19.5319 36.0024C17.4733 30.4407 15.397 24.8819 13.3414 19.3203C13.2583 19.0978 13.0952 18.8724 13.2494 18.6113C14.0829 18.6113 14.9135 18.6113 15.747 18.6113C15.9072 18.724 15.9635 18.8961 16.0288 19.0711C18.0517 24.4726 20.0361 29.886 22.0532 35.2875C22.1807 35.6257 22.4447 35.9668 22.2371 36.3702V36.3731Z" fill="white"/>
<path d="M56.5923 5.8151C57.4228 5.11211 58.3245 4.50699 59.2737 3.979C59.5081 4.19257 59.5644 4.4981 59.6564 4.77692C60.9586 8.68938 62.3379 12.5781 63.6341 16.4935C63.8121 17.0304 64.0464 17.5466 64.1947 18.0953C64.2451 18.2852 64.3816 18.5165 64.085 18.647C63.0883 18.647 62.0946 18.647 61.098 18.647C60.9348 18.647 60.8785 18.5195 60.8221 18.3979C60.7391 18.2169 60.6679 18.0301 60.6056 17.8432C59.336 14.0019 57.9805 10.1873 56.705 6.34606C56.6486 6.17402 56.5685 6.00494 56.5893 5.8151H56.5923Z" fill="white"/>
<path d="M22.2391 36.3736C22.0701 35.4363 21.6459 34.585 21.3255 33.701C20.5306 31.509 19.6911 29.3288 18.8784 27.1427C17.8402 24.3514 16.8109 21.5543 15.7817 18.7601C15.7639 18.7126 15.7609 18.6622 15.749 18.6147C16.5143 18.6147 17.2796 18.6147 18.0449 18.6147C18.3712 18.9143 18.4275 19.3474 18.5669 19.7301C20.2755 24.3455 21.987 28.961 23.7134 33.5675C24.0041 34.3447 24.2265 35.1485 24.6388 35.8782C23.8587 36.1393 23.0549 36.2994 22.2362 36.3766L22.2391 36.3736Z" fill="white"/>
<path d="M64.1795 18.5787C63.8651 17.3239 63.3667 16.1286 62.9604 14.9035C61.8273 11.4894 60.6497 8.09005 59.4928 4.68482C59.4127 4.45048 59.2526 4.24285 59.2733 3.97885C59.9022 3.55765 60.5636 3.1928 61.2666 2.91101C61.6166 2.88728 61.6463 3.1839 61.7264 3.40044C62.0408 4.27548 62.3404 5.15348 62.637 6.03445C63.9778 10.0151 65.366 13.978 66.68 17.9676C66.7482 18.1723 67.0271 18.4363 66.6563 18.6469C65.9859 18.6469 65.3185 18.6498 64.6481 18.6439C64.4909 18.6439 64.3219 18.7032 64.1795 18.5816V18.5787Z" fill="white"/>
<path d="M66.7749 18.579C66.3478 17.3243 65.9206 16.0696 65.4935 14.8149C64.1913 11.0062 62.8891 7.1976 61.587 3.38599C61.5217 3.19615 61.4713 3.00038 61.2666 2.90843C61.9399 2.53765 62.64 2.23509 63.3786 2.01855C63.6574 3.14572 64.1023 4.21653 64.4701 5.31404C65.5884 8.65995 66.7334 11.994 67.8694 15.334C68.2373 16.4167 68.6051 17.4964 68.9729 18.579C68.2402 18.6858 67.5076 18.6858 66.7749 18.579Z" fill="white"/>
<path d="M24.6418 35.8753C24.4015 35.8753 24.3659 35.6914 24.3007 35.5134C23.5769 33.5586 22.8472 31.6039 22.1205 29.6521C20.9815 26.5969 19.8365 23.5446 18.6975 20.4894C18.4661 19.8695 18.2614 19.2406 18.0479 18.6147C18.7123 18.6147 19.3797 18.6147 20.0441 18.6147C20.3704 19.03 20.4742 19.5461 20.6522 20.0237C22.4853 24.9773 24.3422 29.922 26.1605 34.8816C26.2228 35.0477 26.3355 35.2108 26.2495 35.4036C25.7304 35.6202 25.1994 35.7892 24.6448 35.8753H24.6418Z" fill="white"/>
<path d="M16.5476 36.649C15.5272 33.8845 14.5068 31.1229 13.4835 28.3584C12.6678 26.1545 11.8461 23.9535 11.0245 21.7496C10.719 20.928 10.4045 20.1063 10.102 19.2847C10.0219 19.0681 9.92401 18.8546 9.95367 18.6113C10.5529 18.6113 11.152 18.6113 11.7512 18.6113C12.0627 18.8783 12.1101 19.2787 12.2406 19.6317C14.2547 25.0896 16.2955 30.5356 18.3096 35.9935C18.3867 36.2041 18.5291 36.4206 18.3422 36.649C17.743 36.649 17.1438 36.649 16.5476 36.649Z" fill="white"/>
<path d="M72.3669 0.526433C72.6516 1.72183 73.1351 2.85493 73.5237 4.01472C74.6775 7.47632 75.867 10.9261 77.0416 14.3817C77.5162 15.7788 77.9849 17.1789 78.4565 18.576C77.9315 18.7243 77.3976 18.5997 76.8666 18.6412C76.6145 18.6175 76.57 18.4128 76.5018 18.226C75.8581 16.461 75.2797 14.6724 74.6776 12.8927C73.4347 9.22343 72.1503 5.56903 70.9401 1.88793C70.7473 1.30062 70.6168 0.701441 69.8574 0.612454C70.688 0.455244 71.5274 0.499737 72.3639 0.523467L72.3669 0.526433Z" fill="white"/>
<path d="M49.6841 12.6974C50.5621 11.5821 51.5024 10.5202 52.4961 9.50868C52.7067 9.3841 52.7986 9.54131 52.8846 9.68072C52.9558 9.79344 52.9885 9.92395 53.033 10.0485C53.9258 12.7389 54.8513 15.4204 55.7708 18.1019C55.8301 18.2798 56.0051 18.5082 55.6877 18.6447C54.433 18.6447 53.1783 18.6447 51.9236 18.6447C51.7159 18.6417 51.6477 18.4815 51.6003 18.3243C51.0337 16.423 50.2833 14.5869 49.6841 12.6974Z" fill="white"/>
<path d="M69.8597 0.615723C70.7407 0.651317 70.5864 0.443681 70.9068 1.38991C72.2178 5.25491 73.5319 9.11695 74.8459 12.982C75.4807 14.8477 76.1214 16.7135 76.7621 18.5792C76.1956 18.686 75.629 18.686 75.0654 18.5792C73.6209 14.3286 72.1734 10.078 70.7288 5.83036C70.2275 4.35614 69.7232 2.88193 69.222 1.40771C69.1478 1.18821 69.0469 0.974637 69.0766 0.734372C69.1508 0.621655 69.2872 0.713608 69.3732 0.642419C69.5364 0.63352 69.7025 0.627588 69.8656 0.618689L69.8597 0.615723Z" fill="white"/>
<path d="M56.5932 5.81543C56.878 6.15951 56.9314 6.60148 57.0678 7.00192C58.3136 10.6385 59.5446 14.2811 60.7726 17.9236C60.8468 18.1401 61.0099 18.33 60.9832 18.5791C60.1942 18.7245 59.3963 18.6029 58.6043 18.6444C58.3196 18.6029 58.3196 18.3478 58.2543 18.1579C57.2013 15.0908 56.1423 12.0267 55.119 8.95371C54.9559 8.46428 54.7541 7.98968 54.5762 7.50618C55.1991 6.88327 55.8665 6.31672 56.5932 5.81543Z" fill="white"/>
<path d="M54.5749 7.5059C54.9724 7.7254 54.9724 8.1644 55.094 8.51442C55.978 11.0624 56.8293 13.6252 57.6984 16.1792C57.9683 16.9771 58.3154 17.7483 58.4874 18.5789C57.5886 18.6856 56.6899 18.6856 55.7911 18.5789C54.7974 15.663 53.8037 12.7472 52.816 9.82846C52.7596 9.65938 52.7062 9.51404 52.4956 9.5081C53.1422 8.79324 53.8245 8.11397 54.5749 7.50293V7.5059Z" fill="white"/>
<path d="M18.3454 36.646C18.2594 35.946 17.9212 35.329 17.6839 34.6794C16.7347 32.0662 15.7529 29.4648 14.7859 26.8575C13.7833 24.1582 12.7837 21.4589 11.7841 18.7567C11.7663 18.7092 11.7633 18.6588 11.7515 18.6113C12.2498 18.6113 12.7511 18.6113 13.2494 18.6113C14.1037 20.9428 14.952 23.2772 15.8093 25.6087C16.622 27.8156 17.4496 30.0165 18.2683 32.2204C18.7399 33.4929 19.2323 34.7595 19.6683 36.0469C19.8315 36.5304 20.1251 36.6342 20.5612 36.5778C20.0391 36.7172 19.5022 36.6727 18.9713 36.6846C18.7636 36.6727 18.556 36.6579 18.3484 36.646H18.3454Z" fill="white"/>
<path d="M26.2429 35.4002C25.706 33.9735 25.1632 32.5467 24.6323 31.117C23.4903 28.0558 22.3423 24.9976 21.2181 21.9335C20.8147 20.8301 20.3431 19.7504 20.0405 18.6113C20.5744 18.6113 21.1054 18.6113 21.6393 18.6113C21.7817 18.7122 21.847 18.8635 21.9033 19.0236C23.775 24.1078 25.6764 29.183 27.5481 34.2671C27.6193 34.4599 27.7705 34.6527 27.6311 34.8782C27.1921 35.1184 26.7264 35.2786 26.2429 35.4002Z" fill="white"/>
<path d="M25.6318 18.6113C26.1984 18.6113 26.7649 18.6113 27.3285 18.6113C27.4887 18.724 27.5451 18.8991 27.6103 19.0711C29.1231 23.12 30.6181 27.1778 32.1249 31.2267C32.2465 31.553 32.3889 31.8704 32.5432 32.1848C32.0804 32.5942 31.5406 32.8848 30.9948 33.1666C30.7753 33.1459 30.7664 32.9471 30.713 32.8048C29.5295 29.6843 28.3845 26.5519 27.2217 23.4226C26.7116 22.0522 26.1865 20.6907 25.7001 19.3143C25.62 19.0889 25.4509 18.8664 25.6318 18.6113Z" fill="white"/>
<path d="M27.6295 34.8782C26.6358 32.1908 25.6421 29.5063 24.6485 26.8189C23.8298 24.615 23.0081 22.4111 22.1924 20.2042C21.9966 19.6762 21.8216 19.1423 21.6348 18.6113C22.0678 18.6113 22.5009 18.6113 22.934 18.6113C23.1564 18.7656 23.2187 19.0088 23.3048 19.2431C24.5476 22.6128 25.8053 25.9735 27.0511 29.3432C27.6088 30.8559 28.1931 32.3598 28.727 33.8815C28.7893 34.0565 28.8605 34.2256 28.7359 34.4036C28.3948 34.629 28.0062 34.7417 27.6295 34.8811V34.8782Z" fill="white"/>
<path d="M31.9233 18.6113C32.6233 18.6113 33.3204 18.6113 34.0204 18.6113C34.2696 18.8605 34.3052 19.2075 34.4208 19.5131C35.459 22.2301 36.4438 24.968 37.479 27.688C37.5028 27.7503 37.5117 27.8156 37.5146 27.8838C37.043 28.4147 36.5506 28.9249 36.0018 29.3758C35.6845 29.3758 35.6518 29.1088 35.5747 28.9042C34.6937 26.5519 33.8276 24.1967 32.9496 21.8445C32.6292 20.9873 32.3118 20.13 31.9974 19.2728C31.9203 19.0652 31.772 18.8516 31.9203 18.6113H31.9233Z" fill="white"/>
<path d="M28.7281 18.6113C29.2946 18.6113 29.8612 18.6113 30.4248 18.6113C30.757 18.9257 30.8163 19.3737 30.9646 19.7682C32.2312 23.1734 33.48 26.5846 34.7673 29.9839C34.8207 30.1233 34.8949 30.2568 34.8326 30.414C34.4678 30.7818 34.0703 31.1081 33.6313 31.3839C33.2635 31.4106 33.2101 31.1051 33.1241 30.8737C32.6406 29.5805 32.1452 28.2902 31.6736 26.9939C30.7333 24.4163 29.7514 21.8534 28.8171 19.2698C28.74 19.0592 28.5768 18.8546 28.7281 18.6113Z" fill="white"/>
<path d="M28.739 34.4036C28.4779 33.3743 28.0449 32.4043 27.686 31.4106C26.888 29.2186 26.0516 27.0384 25.2388 24.8523C24.4676 22.773 23.7053 20.6936 22.937 18.6113C23.3701 18.6113 23.8032 18.6113 24.2392 18.6113C24.4884 18.7181 24.5299 18.9673 24.607 19.1779C26.2681 23.6688 27.9411 28.1567 29.6021 32.6505C29.7386 33.0213 29.9581 33.3713 29.9522 33.7866C29.5784 34.0476 29.1661 34.2404 28.7419 34.4036H28.739Z" fill="white"/>
<path d="M29.9503 33.7866C29.5053 32.9353 29.2354 32.0157 28.9002 31.1229C27.5209 27.4537 26.1565 23.7755 24.789 20.1004C24.6051 19.605 24.4212 19.1097 24.2373 18.6113C24.703 18.6113 25.1687 18.6113 25.6314 18.6113C25.9162 19.7355 26.3908 20.7945 26.7853 21.8801C27.604 24.1345 28.4553 26.374 29.2947 28.6194C29.8613 30.1352 30.4308 31.6509 30.9974 33.1666C30.6948 33.4514 30.324 33.6234 29.9503 33.7836V33.7866Z" fill="white"/>
<path d="M28.7282 18.6113C29.5528 20.8508 30.3714 23.0933 31.202 25.3328C31.8991 27.2134 32.608 29.091 33.3021 30.9746C33.3703 31.1585 33.4593 31.3009 33.6343 31.3839C33.311 31.7043 32.9372 31.9594 32.5457 32.1848C32.3381 32.17 32.2876 32.0068 32.2283 31.8496C31.2761 29.2868 30.3181 26.7269 29.3689 24.1641C28.6837 22.3162 28.0103 20.4623 27.3311 18.6143C27.7968 18.6143 28.2625 18.6143 28.7282 18.6143V18.6113Z" fill="white"/>
<path d="M36.217 18.6113C37.1158 18.6113 38.0146 18.6113 38.9133 18.6113C39.2248 19.1808 39.379 19.8097 39.6134 20.4118C40.0761 21.6013 40.524 22.7937 40.9393 24.001C40.3757 24.7692 39.7557 25.49 39.1002 26.1812C38.8481 26.2019 38.8095 25.9973 38.7472 25.8341C37.8929 23.6065 37.0891 21.361 36.2467 19.1304C36.1844 18.9673 36.0865 18.7923 36.22 18.6113H36.217Z" fill="white"/>
<path d="M34.8351 30.414C34.2151 29.094 33.7791 27.7028 33.263 26.3413C32.3078 23.82 31.3913 21.2869 30.4599 18.7567C30.4421 18.7092 30.4391 18.6588 30.4272 18.6113C30.9256 18.6113 31.4269 18.6113 31.9252 18.6113C32.7884 20.9606 33.6486 23.3128 34.5118 25.6591C34.9063 26.7329 35.3097 27.8037 35.7042 28.8775C35.7724 29.0643 35.808 29.266 36.0038 29.3728C35.6538 29.7644 35.2474 30.0936 34.8351 30.411V30.414Z" fill="white"/>
<path d="M49.6857 12.6973C49.9793 12.8871 50.009 13.2223 50.1098 13.5071C50.5963 14.8923 51.0679 16.2864 51.5396 17.6776C51.6404 17.9742 51.7146 18.2798 51.8006 18.5793C51.1391 18.7247 50.4688 18.609 49.8043 18.6416C49.6086 18.6505 49.4098 18.6416 49.214 18.6416C49.0509 18.6327 48.9945 18.5111 48.95 18.3865C48.5674 17.3662 48.2174 16.3369 47.8911 15.2987C47.8555 15.186 47.8525 15.0733 47.8911 14.9576C48.4517 14.1715 49.039 13.4092 49.6916 12.6943L49.6857 12.6973Z" fill="white"/>
<path d="M36.2167 18.6113C37.0503 20.8716 37.8778 23.1378 38.7262 25.3921C38.827 25.6591 38.8152 25.9913 39.097 26.1782C38.7974 26.5727 38.4622 26.9375 38.1003 27.2757C37.8452 27.2401 37.8244 27.0087 37.7592 26.8397C36.7981 24.2383 35.8282 21.6428 34.8582 19.0444C34.8048 18.905 34.7485 18.7626 34.8196 18.6113C35.2853 18.6113 35.751 18.6113 36.2167 18.6113Z" fill="white"/>
<path d="M40.9389 24.0014C40.6155 23.8472 40.6422 23.5001 40.5414 23.2361C40.0164 21.8776 39.521 20.5102 39.0138 19.1457C38.9515 18.9737 38.8922 18.8016 38.9129 18.6147C39.6129 18.6147 40.313 18.6147 41.013 18.6147C41.1702 18.6711 41.2266 18.8105 41.28 18.9499C41.6715 20 42.0809 21.0441 42.4427 22.106C41.98 22.7704 41.4846 23.4052 40.9389 24.0014Z" fill="white"/>
<path d="M34.8199 18.6113C35.7009 20.9636 36.5759 23.3187 37.4599 25.671C37.6616 26.2108 37.887 26.7418 38.1006 27.2757C37.9345 27.5041 37.7535 27.7206 37.5162 27.8808C37.1128 27.4922 37.0535 26.9405 36.8696 26.457C35.953 24.0573 35.075 21.6428 34.1881 19.2313C34.114 19.0296 34.0754 18.819 34.019 18.6113C34.286 18.6113 34.553 18.6113 34.8199 18.6113Z" fill="white"/>
<path d="M42.4449 22.1057C42.0296 21.729 42.0148 21.1654 41.8101 20.6938C41.5135 20.0145 41.2791 19.3085 41.0151 18.6115C42.3796 18.6085 43.7441 18.6055 45.1056 18.5996C45.1174 18.6144 45.1293 18.6293 45.1412 18.6471C45.1263 18.6619 45.1115 18.6738 45.0996 18.6886C44.2157 19.8276 43.3288 20.9667 42.4449 22.1057Z" fill="white"/>
<path d="M47.8829 14.9629C48.2893 16.1672 48.6927 17.3745 49.0991 18.5788C48.8825 18.7093 48.6452 18.6411 48.4228 18.6381C47.3164 18.6173 46.207 18.7063 45.1006 18.5936L45.1065 18.5995C46.0142 17.3715 46.9011 16.1287 47.8859 14.96L47.8829 14.9629Z" fill="white"/>
<path d="M45.1006 18.5934C46.4324 18.5875 47.7672 18.5845 49.0991 18.5786C49.9978 18.5786 50.8966 18.5786 51.7954 18.5786C53.1272 18.5786 54.4591 18.5786 55.7909 18.5786C56.6897 18.5786 57.5884 18.5786 58.4872 18.5786C59.3207 18.5786 60.1513 18.5786 60.9848 18.5786C62.0497 18.5786 63.1145 18.5786 64.1794 18.5786C65.0456 18.5786 65.9117 18.5786 66.7749 18.5786C67.5075 18.5786 68.2402 18.5786 68.9728 18.5786C69.9369 18.5786 70.9039 18.5786 71.8679 18.5786C72.9328 18.5786 73.9976 18.5786 75.0625 18.5786C75.6291 18.5786 76.1956 18.5786 76.7592 18.5786C77.3258 18.5786 77.8923 18.5786 78.4559 18.5786C79.589 18.5786 80.7191 18.5786 81.8522 18.5786C82.8845 18.5786 83.9167 18.5786 84.949 18.5786C86.6813 18.5875 88.4106 18.5964 90.1429 18.6023C90.0064 18.7477 89.8314 18.6913 89.6712 18.6913C74.8816 18.6913 60.089 18.6913 45.2993 18.6913C45.2341 18.6913 45.1658 18.6884 45.1006 18.6854C45.1006 18.6528 45.1006 18.6231 45.1006 18.5905V18.5934Z" fill="white"/>
<path d="M69.369 0.639133C69.2918 0.739985 69.1762 0.713289 69.0723 0.731086C69.0041 0.725154 68.9359 0.722187 68.8677 0.716255C69.0249 0.621335 69.1969 0.630234 69.369 0.636167V0.639133Z" fill="white"/>
<path d="M7.47784 49.2477C7.56683 49.1973 7.64098 49.1617 7.70921 49.1142C9.31987 47.9782 9.50081 44.6085 6.80747 43.6564C6.46339 43.5347 6.11337 43.422 5.75446 43.3627C3.93616 43.0601 2.10302 43.2589 0.275823 43.1995C-0.00596899 43.1907 0.00589599 43.3716 0.00589599 43.5644C0.00589599 47.6756 0.00589592 51.7838 0.00292969 55.895C0.00292969 56.1323 0.0355582 56.254 0.323283 56.251C1.95471 56.2362 3.58614 56.2806 5.2146 56.2213C6.43076 56.1768 7.59352 55.8565 8.46263 54.9191C9.99914 53.264 9.56607 50.6537 7.47784 49.2477ZM2.65178 47.0675C2.65178 47.0675 2.67551 47.0675 2.68737 47.0675C2.68737 46.5722 2.48863 45.887 2.7378 45.6289C3.05222 45.2996 3.73742 45.5429 4.25948 45.5251C4.48788 45.5162 4.72518 45.5458 4.95061 45.5933C5.81675 45.7831 6.22312 46.2785 6.19643 47.0735C6.1638 48.0167 5.77226 48.4883 4.83493 48.5862C4.19422 48.6515 3.54165 48.6159 2.89501 48.6367C2.68441 48.6426 2.64881 48.5358 2.64881 48.3608C2.65474 47.9277 2.64881 47.4976 2.64881 47.0646L2.65178 47.0675ZM5.36588 53.8543C4.54424 54.0293 3.70776 53.9344 2.88018 53.964C2.65178 53.9729 2.65178 53.8424 2.65178 53.6793C2.65474 53.2136 2.65178 52.7479 2.65178 52.2822C2.65178 51.8343 2.65178 51.3834 2.65178 50.9355C2.65178 50.7723 2.65178 50.6418 2.87721 50.6507C3.70479 50.6834 4.54127 50.5795 5.36292 50.7516C6.24685 50.9385 6.67696 51.4694 6.67103 52.3622C6.66806 53.1898 6.25575 53.6615 5.36292 53.8543H5.36588Z" fill="white"/>
<path d="M45.1674 46.8806C43.4025 46.1954 41.6613 46.317 40.1396 47.554C38.9709 48.5032 38.5734 49.8439 38.5408 51.2825C38.4578 54.8568 40.7032 56.5506 43.2067 56.4645C45.4966 56.4645 47.0954 55.281 47.6531 53.1513C47.8637 52.3415 47.9111 51.5169 47.8073 50.6804C47.5938 48.9451 46.8581 47.5362 45.1674 46.8806ZM44.8441 53.2907C44.5474 53.9788 43.9809 54.3229 43.2245 54.3288C42.4711 54.3348 41.9253 53.9877 41.5782 53.3233C41.2786 52.7478 41.2015 52.1279 41.1956 51.4902C41.2015 50.8524 41.2757 50.2295 41.5812 49.657C41.9342 49.0015 42.477 48.6485 43.2334 48.6574C43.9957 48.6663 44.5563 49.0282 44.847 49.7075C45.3542 50.891 45.3513 52.1042 44.8411 53.2907H44.8441Z" fill="white"/>
<path d="M28.7068 50.0869C28.6801 48.2835 27.6448 47.0287 25.8859 46.6609C24.0231 46.2723 22.2255 46.5986 20.4577 47.2126C20.1788 47.3105 20.1729 47.4826 20.1759 47.708C20.1788 49.0725 20.1759 50.434 20.1759 51.7984C20.1759 53.1303 20.1907 54.4592 20.167 55.788C20.1581 56.1736 20.2767 56.2686 20.6416 56.2478C21.1873 56.2152 21.742 56.2092 22.2878 56.2478C22.709 56.2775 22.8099 56.144 22.8039 55.7287C22.7802 53.6167 22.7921 51.5048 22.798 49.3928C22.798 49.2267 22.7061 49.0042 22.9463 48.9153C23.7294 48.6305 24.5333 48.4614 25.3163 48.85C26.0282 49.203 26.1083 49.9001 26.1083 50.603C26.1083 52.3146 26.1261 54.029 26.0965 55.7406C26.0905 56.1736 26.221 56.2686 26.6215 56.2419C27.1851 56.2063 27.7516 56.2181 28.3182 56.2389C28.6059 56.2478 28.7216 56.1914 28.7186 55.8622C28.7008 53.9341 28.7305 52.0031 28.7038 50.0751L28.7068 50.0869Z" fill="white"/>
<path d="M57.802 50.0635C57.7842 48.2926 56.749 47.0231 55.0197 46.6642C53.1569 46.2756 51.3564 46.5989 49.5825 47.207C49.2948 47.3049 49.3097 47.4858 49.3097 47.7053C49.3097 49.052 49.3097 50.4016 49.3097 51.7483C49.3097 53.095 49.3274 54.4446 49.3008 55.7913C49.2919 56.1798 49.4105 56.2688 49.7754 56.2481C50.3389 56.2154 50.9085 56.2154 51.472 56.2481C51.8339 56.2688 51.9051 56.1502 51.9021 55.8061C51.8843 53.8602 51.8932 51.9114 51.8932 49.9656C51.8932 48.8265 51.9318 48.785 53.0797 48.6604C53.1628 48.6515 53.2458 48.6515 53.3289 48.6486C54.6281 48.6248 55.2006 49.1795 55.2036 50.4698C55.2036 52.2496 55.2154 54.0323 55.1947 55.812C55.1917 56.168 55.2955 56.2629 55.6396 56.2481C56.221 56.2184 56.8053 56.2273 57.3867 56.2481C57.6863 56.257 57.8198 56.2065 57.8168 55.8536C57.7961 53.9225 57.8227 51.9915 57.802 50.0635Z" fill="white"/>
<path d="M74.1485 50.3243C74.1248 48.5683 73.3654 47.3106 71.9446 46.8153C70.2865 46.2368 68.6372 46.4979 67.0029 46.9784C66.813 47.0348 66.813 47.1534 66.8575 47.3255C66.9791 47.809 67.0889 48.2954 67.1868 48.7819C67.2372 49.0399 67.3262 49.0904 67.5902 48.9984C68.3644 48.7255 69.1712 48.6158 69.9928 48.6603C71.0607 48.7196 71.6153 49.3099 71.6124 50.3421C71.6124 50.6328 71.5768 50.7366 71.2297 50.6892C70.2538 50.5557 69.278 50.529 68.3199 50.8434C66.9732 51.2854 66.2198 52.2494 66.2168 53.5457C66.2168 54.8508 66.994 55.8919 68.3762 56.242C70.2538 56.7166 72.0988 56.4793 73.8964 55.7822C74.1366 55.6902 74.1574 55.5271 74.1544 55.3135C74.1485 54.4652 74.1544 53.6168 74.1544 52.7685C74.1544 51.9202 74.1633 51.1371 74.1544 50.3214L74.1485 50.3243ZM71.6064 53.4418C71.6064 54.4919 71.5353 54.5809 70.4793 54.6194C70.0492 54.6343 69.6102 54.5957 69.2394 54.3317C68.8805 54.0766 68.7589 53.7058 68.8123 53.2846C68.8745 52.7922 69.1534 52.4778 69.6398 52.3384C70.236 52.1723 70.8234 52.2613 71.4166 52.3503C71.6035 52.3799 71.6035 52.5075 71.6035 52.6439C71.6035 52.9109 71.6035 53.1749 71.6035 53.4418H71.6064Z" fill="white"/>
<path d="M18.4285 52.7366C18.4285 51.9209 18.4374 51.1051 18.4285 50.2924C18.3988 48.2309 17.2954 46.8723 15.3822 46.5816C14.0652 46.3829 12.7719 46.549 11.4905 46.9079C11.1227 47.0117 11.0722 47.1778 11.1671 47.5071C11.2828 47.9046 11.3718 48.3109 11.4549 48.7173C11.5083 48.9843 11.5617 49.1118 11.9028 48.9873C12.6562 48.7144 13.4511 48.6135 14.258 48.655C15.3495 48.7114 15.9131 49.3165 15.8953 50.3725C15.8894 50.6572 15.8301 50.7255 15.5275 50.6869C14.519 50.5505 13.5045 50.5238 12.5198 50.8649C11.2235 51.3128 10.4701 52.3243 10.4968 53.579C10.5235 54.8782 11.2858 55.8926 12.6414 56.2397C14.519 56.7232 16.364 56.48 18.1615 55.7918C18.3929 55.7028 18.4404 55.5575 18.4374 55.335C18.4285 54.4689 18.4344 53.6057 18.4344 52.7395L18.4285 52.7366ZM14.7949 54.6142C14.347 54.6409 13.8931 54.5934 13.5075 54.3205C12.852 53.8578 12.9647 52.784 13.7003 52.4192C14.0236 52.259 14.3677 52.2442 14.7177 52.2471C15.8805 52.256 15.8805 52.2531 15.8805 53.401V53.4514C15.8805 54.4985 15.8449 54.5489 14.7919 54.6142H14.7949Z" fill="white"/>
<path d="M90.1567 55.7706C90.0914 55.4473 90.1003 55.1091 90.1092 54.7769C90.1181 54.3349 89.9758 54.2133 89.5041 54.2964C88.3592 54.4951 87.8193 53.9998 87.8104 52.8251C87.8045 52.2586 87.8104 51.692 87.8104 51.1284C87.8104 50.464 87.8193 49.7966 87.8074 49.1322C87.8045 48.8978 87.8816 48.8089 88.1219 48.8148C88.5876 48.8296 89.0533 48.8059 89.519 48.8237C89.7859 48.8355 89.863 48.7406 89.8541 48.4826C89.8363 48.0169 89.8304 47.5512 89.8541 47.0855C89.8719 46.7859 89.7533 46.7236 89.4834 46.7355C89.0859 46.7562 88.6825 46.7177 88.285 46.7473C87.9231 46.774 87.7718 46.6821 87.8015 46.2876C87.8371 45.8248 87.8015 45.3562 87.8134 44.8905C87.8193 44.6443 87.7659 44.5226 87.4841 44.5464C86.8226 44.5968 86.1582 44.6294 85.4938 44.6502C85.2535 44.6591 85.1823 44.7451 85.1912 44.9824C85.209 45.4659 85.1882 45.9464 85.2001 46.4299C85.206 46.6643 85.126 46.7444 84.8857 46.7503C84.5772 46.7592 84.159 46.5901 83.9929 46.8333C83.8445 47.0499 83.9484 47.4414 83.9424 47.7558C83.9424 47.8715 83.9424 47.9902 83.9424 48.1059C83.9424 48.8178 83.9424 48.8504 84.6514 48.8059C85.1349 48.7762 85.212 48.9572 85.212 49.3902C85.212 50.8378 85.123 52.2853 85.2654 53.7298C85.3959 55.0587 86.1523 56.0109 87.321 56.3342C88.0892 56.5448 88.8723 56.4736 89.6524 56.4291C90.0825 56.4054 90.2575 56.2304 90.1656 55.7736L90.1567 55.7706Z" fill="white"/>
<path d="M65.1434 54.7263C65.1494 54.311 65.0129 54.2131 64.5858 54.2902C63.4883 54.4919 62.8861 54.0529 62.8535 53.0177C62.8149 51.7215 62.8446 50.4223 62.8357 49.126C62.8357 48.8858 62.9158 48.8057 63.1531 48.8146C63.6188 48.8264 64.0845 48.8086 64.5502 48.8235C64.7994 48.8324 64.9121 48.7671 64.9032 48.4942C64.8854 48.0137 64.8854 47.5302 64.9032 47.0467C64.9121 46.8035 64.8261 46.7293 64.5888 46.7382C64.2061 46.753 63.8175 46.7026 63.4438 46.753C62.9069 46.8242 62.7882 46.5988 62.8327 46.1183C62.8713 45.7059 62.8327 45.2877 62.8446 44.8724C62.8505 44.6529 62.806 44.5284 62.545 44.5491C61.8657 44.5966 61.1865 44.6322 60.5042 44.6589C60.2907 44.6678 60.2165 44.7419 60.2225 44.9555C60.2343 45.439 60.2165 45.9195 60.2314 46.403C60.2373 46.6551 60.1631 46.7441 59.8962 46.753C58.9707 46.7857 58.9707 46.7975 58.9707 47.7289V47.9277C58.9707 48.7968 58.9707 48.8116 59.8487 48.8116C60.1631 48.8116 60.2462 48.9095 60.2373 49.2091C60.2165 49.8409 60.2314 50.4727 60.2314 51.2261C60.2521 51.9528 60.1987 52.8012 60.2877 53.6466C60.4479 55.1682 61.2903 56.1708 62.7111 56.4141C63.3993 56.5327 64.1023 56.4793 64.7994 56.4141C65.1612 56.3785 65.268 56.2331 65.2117 55.8742C65.1523 55.4975 65.1434 55.1119 65.1494 54.7292L65.1434 54.7263Z" fill="white"/>
<path d="M82.5352 53.8513C81.9686 54.0857 81.4139 54.2399 80.8355 54.3141C79.5482 54.4802 78.5545 53.9195 78.2074 52.7805C77.9434 51.9203 77.9345 51.0423 78.2074 50.1791C78.5159 49.1973 79.2664 48.6604 80.2986 48.6574C80.9364 48.6574 81.5533 48.7909 82.1436 49.0164C82.3453 49.0935 82.464 49.1053 82.5174 48.8443C82.6182 48.3401 82.7339 47.8388 82.8703 47.3434C82.9356 47.1091 82.8644 47.026 82.6538 46.9489C81.9775 46.6997 81.2804 46.5751 80.5656 46.5099C78.2697 46.2993 76.3743 47.4294 75.6861 49.4643C75.2264 50.8258 75.2293 52.211 75.6891 53.5755C76.0124 54.5336 76.5968 55.3226 77.4985 55.809C79.1892 56.7167 80.9364 56.6574 82.7072 56.0463C82.903 55.9781 82.9504 55.8832 82.903 55.6756C82.7665 55.0793 82.6597 54.4772 82.5352 53.8513Z" fill="white"/>
<path d="M37.2845 53.8453C36.706 54.0945 36.1454 54.2428 35.567 54.311C34.1432 54.483 33.1406 53.7978 32.8618 52.4215C32.7165 51.7007 32.7194 50.9621 32.93 50.2472C33.2296 49.218 34.0008 48.6573 35.0746 48.6573C35.6975 48.6573 36.2967 48.7879 36.8751 49.0074C37.1213 49.1023 37.2251 49.0726 37.2785 48.8027C37.3734 48.3311 37.4921 47.8654 37.6137 47.3997C37.679 47.1475 37.6226 47.02 37.3556 46.928C36.6912 46.6996 36.009 46.5691 35.3149 46.5068C32.9241 46.2873 30.9901 47.5331 30.3613 49.7044C30.0498 50.7782 30.0379 51.8727 30.2693 52.9614C30.4562 53.8364 30.8626 54.6046 31.5062 55.2513C33.0427 56.7908 36.0119 56.678 37.5218 56.0255C37.7086 55.9454 37.6879 55.8297 37.6523 55.6666C37.5247 55.0822 37.4179 54.4949 37.2874 53.8483L37.2845 53.8453Z" fill="white"/>
</svg>
